<?xml version="1.0" encoding="UTF-8" standalone="no"?><svg xmlns="http://www.w3.org/2000/svg" xmlns:xlink="http://www.w3.org/1999/xlink" fill="#000000" height="505.3" id="Illustration" preserveAspectRatio="xMidYMid meet" version="1.1" viewBox="0.0 -0.9 392.2 505.3" width="392.2" x="0" xml:space="preserve" y="0" zoomAndPan="magnify"><g><g id="change1_1"><path d="M378.8450928,368.6360474c-8.9938354,21.9760742-40.6342773,89.0737915-103.5802917,123.6403809 c-22.2286224,12.2067566-48.3481293,9.9388123-68.4746399-6.7645874c-0.194397-0.1613159-0.3876801-0.3233948-0.5798035-0.486145 c-6.5745392-5.5698547-15.2910461-5.5681763-21.8657227,0.0014648c-0.2496338,0.2114868-0.501236,0.4217529-0.7546997,0.6308289 c-20.1608582,16.6300049-46.2141113,18.7700806-68.4296494,6.5460205 C39.2975159,450.4606323,8.9603052,361.4772034,8.9603052,361.4772034l0.0074406-0.0001221 C3.1976538,345.7499084,0,328.4969788,0,310.3912048c0-73.3323059,52.2729874-132.7799988,116.7549667-132.7799988 c29.8723373,0,57.1115494,12.774704,77.7600021,33.7614136c20.9858093-22.9471741,49.4776459-37.0808563,80.889328-37.0808563 c64.4819946,0,116.7549744,59.4475708,116.7549744,132.7799835 C392.1592712,329.2970276,387.3328857,350.2299194,378.8450928,368.6360474z" fill="#940d00"/></g><g id="change2_1"><path d="M37.6314621,417.4678955L37.6314621,417.4678955c0,0,83.5791397,41.6954651,187.2849731-11.4164734 c103.6906281-53.1040955,115.3149567-157.057663,123.931015-202.1755219 c26.4143677,24.3435059,43.3118286,61.5183258,43.3118286,103.195816c0,22.2252502-4.8263855,43.1581421-13.3141785,61.5643005 c-8.9938354,21.9760437-40.6342773,89.073761-103.5802612,123.6404114 c-22.2285919,12.2067871-48.3481598,9.9387207-68.4746246-6.7646484c-0.194397-0.1613159-0.3877563-0.3233948-0.5798492-0.4861145 c-6.5745087-5.5698853-15.2910461-5.5681152-21.8656616,0.0015259c-0.2496338,0.2114563-0.5012512,0.4216614-0.7547455,0.6307373 c-20.1608429,16.6300354-46.2140808,18.77005-68.4296646,6.5460815 C80.0818787,472.9020996,54.7439842,443.5027771,37.6314621,417.4678955z" fill="#292522" opacity="0.2"/></g><g id="change3_1"><path d="M178.6950226,78.4578934c1.6441193,0,4.9323425,0,6.5764618,0 c4.6446381,0,8.2453613,4.5739212,8.4179077,10.1835403c2.3902435,77.7047424,8.0814819,137.7418518,8.0814819,137.7418518 l-13.6615143,0.8832703c-6.4951172-29.9845886-15.9838715-91.2792053-17.8324738-138.3905029 C170.0526123,83.1602097,173.9605713,78.4578934,178.6950226,78.4578934z" fill="#89552b"/></g><g id="change4_1"><path d="M50.9254761,263.4531555c-0.3366394-2.8676758,0.0851707-5.4211121,0.9224968-7.7458038 c0.8399086-2.3276215,2.0466194-4.4513397,3.1417084-6.6528015c2.3061562-4.329071,4.9328232-8.5097351,8.0340462-12.3210144 c1.5407715-1.9130707,3.205101-3.7251434,4.9204025-5.4843292c1.747406-1.7304535,3.5015793-3.4535065,5.4504471-4.9755707 c3.8885498-3.0389557,8.2106781-5.6472321,13.3651276-6.9544373c2.1967926-0.5571442,4.4292374,0.7720032,4.9863815,2.9689484 c0.2427597,0.9568634,0.1274261,1.9204865-0.2614746,2.749588l-0.0685577,0.1454926 c-2.1033936,4.4777832-4.6166687,8.1693878-7.2626877,11.7167664c-1.3110733,1.7798309-2.7202225,3.4519043-4.0750122,5.1720428 l-4.0745316,5.1368713c-2.7184448,3.4170532-5.5512619,6.7502289-8.3731003,10.1553497l-2.0788803,2.5869751 c-0.7111893,0.8552551-1.3305969,1.7678833-2.1134033,2.588623c-1.5925484,1.6304321-3.2893028,3.2092896-5.8835449,4.3948669 l-0.2448616,0.1116333c-2.276638,1.0404053-4.9652443,0.0380554-6.0054932-2.2382507 C51.1059761,264.3735352,50.9806442,263.9035034,50.9254761,263.4531555z M44.2976761,313.1046448l0.1782379-0.0835571 c1.7569199-0.824585,2.6258621-1.684021,3.2173615-2.5647278c0.2869606-0.4403687,0.443264-0.8913574,0.6158562-1.3397827 l0.5184326-1.3404541c0.685379-1.7830505,1.286232-3.547699,1.5630302-5.3607483 c0.1437225-0.9062195,0.2324371-1.8214417,0.2726021-2.7486267c0.0325851-0.9291077,0.1109772-1.8501282-0.0043526-2.8179626 c-0.2159882-1.936615-0.7621613-3.9567871-2.3837471-6.3614807l-0.1188774-0.1767883 c-1.5535164-2.2853699-4.6098976-3.0870361-7.1120377-1.768219c-2.641346,1.3920593-4.1137238,3.1934814-5.163166,5.0984802 c-0.5310097,0.9533081-0.8476486,1.9579163-1.1854172,2.9592896c-0.3301888,1.0029907-0.5897255,2.0223999-0.7703857,3.0547485 c-0.3730965,2.0640564-0.3311577,4.1913147-0.1166229,6.3111572c0.1383972,1.0636597,0.165657,2.1108398,0.4939117,3.1812439 c0.4008369,1.0758972,1.1036377,2.1746826,2.7066727,3.3099365 C39.0740204,313.9111633,41.8477974,314.2543945,44.2976761,313.1046448z" fill="#ffffff"/></g><g id="change5_1"><path d="M305.8086243,0.2134667c3.1865234-1.0719895,6.2802734,2.0417652,5.9838257,6.0224853 c-1.2853699,17.2592716-7.1227417,60.0062523-33.6201172,99.2363052 c-34.196228,50.6281281-85.8627625,66.744812-85.8627625,66.744812s3.7773895-64.3153076,38.8038177-114.1078033 C258.2542114,19.5267963,291.9928284,4.861311,305.8086243,0.2134667z" fill="#084918"/></g><g id="change2_2"><path d="M310.4025879,1.8178066l-0.0179138,0.0145174 c-6.7844238,5.5120649-13.4599915,11.1315584-19.7493591,17.1794739 c-6.277771,6.0501728-12.3995667,12.2629414-18.159729,18.8083153c-5.276886,5.9191971-10.3169861,12.0480881-15.1763916,18.317955 c1.0245972-0.5042343,2.061615-0.9742737,3.109436-1.3985023c4.6971741-1.9395142,9.539978-3.3302727,14.4119873-4.429718 c2.4313354-0.58424,4.8852539-1.0175018,7.3343201-1.4572144l3.6775513-0.6171494l3.6874084-0.5200424 c4.9223328-0.6297302,9.8633728-1.0436325,14.8304138-1.1471901c0.5197144-0.0109673,0.9499207,0.4016457,0.9607239,0.9213676 c0.0093384,0.4503593-0.3019714,0.8339386-0.7226563,0.9352379c-4.8174744,1.1633186-9.6495056,2.106945-14.4719849,3.0205688 c-4.8240967,0.9016876-9.6277161,1.8327293-14.3766785,2.9128189c-4.7416687,1.0939598-9.4517212,2.2785759-13.9603271,3.897419 c-3.4415588,1.2300987-6.6608734,2.7605476-9.6473999,4.6687698c-3.9646759,5.3556023-7.7653198,10.8350792-11.4307861,16.4023094 c-4.7060242,7.155426-9.2133331,14.4447327-13.5180359,21.8546982c2.5473022-1.4539871,5.23526-2.5466614,7.9369354-3.5180283 c5.4941711-1.9327393,11.1270447-3.2725296,16.792511-4.2338943c5.6669159-0.9655685,11.3672333-1.6207809,17.0789948-1.992424 c5.7144775-0.3461609,11.4411011-0.4248734,17.1752625,0.0822678c0.5168152,0.0454865,0.8989563,0.5016479,0.8531494,1.0184708 c-0.0403442,0.4571304-0.4016418,0.8087692-0.8420105,0.8523254l-0.0111389,0.0009689 c-5.6236877,0.5626221-11.2436523,1.1755753-16.8417053,1.8088531c-2.7997437,0.3164825-5.594635,0.6590881-8.3821411,1.0304108 c-2.786499,0.3813171-5.5589905,0.8332901-8.3253479,1.2901077c-5.5225525,0.9607239-11.0073547,2.099205-16.302475,3.7222366 c-2.6440887,0.812973-5.2209015,1.7959518-7.6643372,2.9676666c-1.6464233,0.7881241-3.2301025,1.6552963-4.7186127,2.6595688 c-3.2854309,5.8456421-6.4463348,11.7629013-9.4728699,17.7498474c-2.8845978,5.7495041-5.6296539,11.5715866-8.3085938,17.4246597 c1.8149872-1.0942841,3.7272491-1.9375916,5.6499786-2.6782837c4.2987518-1.6249847,8.7203979-2.6589355,13.1578674-3.3999634 c2.2167816-0.3910065,4.4476166-0.6542511,6.6761932-0.8845825c2.228241-0.2400208,4.4611664-0.402298,6.6952209-0.5036011 c4.4682617-0.184845,8.9478302-0.0993652,13.4101257,0.4835968c0.5160217,0.0674286,0.8797607,0.5403595,0.8123322,1.0562134 c-0.0575867,0.440033-0.4169769,0.7700653-0.8395844,0.8155518l-13.0994568,1.4114075 c-4.3502045,0.4684296-8.6876526,0.9891052-12.9713898,1.7162628c-4.2758331,0.7371674-8.5361938,1.5694885-12.5924835,2.8660431 c-2.0267792,0.64328-3.9832306,1.4398041-5.8104858,2.3831024c-1.3015594,0.6687622-2.5168152,1.4117279-3.6286774,2.2930908 c-3.6572418,8.2242279-7.1281738,16.5300598-10.4092407,24.8984985l-0.0093536,0.0241852 c-0.1888885,0.4813385-0.7323303,0.7187805-1.2138214,0.5300446c-0.4501953-0.1767883-0.6856995-0.6677856-0.5600433-1.1239624 c1.192688-4.2709961,2.575531-8.4403687,4.0693665-12.5868378c0.7355499-2.0756531,1.5070648-4.1371155,2.2830963-6.1979218 c0.8168335-2.0437164,1.6157684-4.0955048,2.4645538-6.1263123c3.3164063-8.1574402,7.0163879-16.1529388,10.883316-24.063591 c3.8807983-7.9045181,7.9946899-15.6964493,12.3326263-23.3651428c3.9491882-7.0563812,8.1998596-13.9427567,12.6494141-20.6981506 c0.1516266-0.6290817,0.3045502-1.257843,0.4622955-1.8830566c0.3713226-1.6430359,0.8260345-3.2547836,1.2165527-4.8800735 c0.8131409-3.2412338,1.6182098-6.4727936,2.2518005-9.7343483c0.6310272-3.2593002,1.2225189-6.5234375,1.6056213-9.810482 c0.1880798-1.6420708,0.3158264-3.2899475,0.4172821-4.932663c0.1329193-1.6340065,0.2695465-3.3134995,0.4758453-4.9171791 l0.0132294-0.1035576c0.0669403-0.5203629,0.5429535-0.8878136,1.0631561-0.8207092 c0.3616486,0.0464554,0.6497345,0.2916336,0.7690887,0.6110153c1.294632,3.4838333,1.146225,6.9899292,1.0226746,10.4673119 c-0.1656647,3.4770584-0.6132813,6.9283104-1.2965546,10.3231049c-0.3282623,1.7004585-0.7392578,3.3818932-1.2034912,5.0455742 c-0.0830688,0.3419647-0.192276,0.6758652-0.2863159,1.0146027c3.2441406-4.6497421,6.5834503-9.2346306,10.0630798-13.7140312 c2.6477966-3.5270653,5.4862518-6.9070168,8.2581024-10.3372993c2.9168396-3.3112411,5.7417603-6.7002258,8.7818604-9.9008141 c11.8764343-13.0471973,25.1610718-24.8391342,39.555481-34.9931908c0.4226379-0.298089,1.0067139-0.1971129,1.3046265,0.2251798 C310.8598633,0.9577361,310.7798767,1.5097169,310.4025879,1.8178066z M220.4524536,214.6042938l-0.0182343,0.0138702 c-3.8053131,2.9060516-7.8222504,5.3433533-12.1716461,6.9954224c-4.3129272,1.7230377-8.9115295,2.6769867-13.5720673,3.0437927 c-4.6649017,0.3555145-9.3994904,0.1777649-14.0980988-0.4706879c-4.699585-0.6390839-9.3262482-1.8475647-14.0167999-2.7966766 l-0.0601654-0.0122528c-0.3795471-0.0761414-0.7828064,0.087738-0.9941101,0.4384155 c-0.2693787,0.4464874-0.125824,1.0268555,0.3208313,1.2962341c4.37117,2.636673,9.2404327,3.8580627,14.1484222,4.7994232 c4.9139557,0.9184723,9.9766235,1.2943115,15.027359,0.8839569c2.527298-0.1632538,5.040741-0.6094055,7.5114288-1.2123718 c1.2407379-0.2832489,2.4560089-0.6745605,3.6710968-1.0571747c1.1905823-0.4600372,2.3961639-0.8774872,3.5448151-1.4385071 c4.6558685-2.0959778,8.7844238-5.2972107,11.9987183-9.1320343c0.276474-0.3297119,0.2987366-0.8184662,0.0266266-1.174942 C221.4554291,214.3681488,220.8652191,214.2891083,220.4524536,214.6042938z" fill="#292522"/></g></g></svg>