<?xml version="1.0" encoding="UTF-8" standalone="no"?><svg xmlns="http://www.w3.org/2000/svg" xmlns:xlink="http://www.w3.org/1999/xlink" fill="#000000" height="416.7" preserveAspectRatio="xMidYMid meet" version="1" viewBox="-0.2 0.0 485.1 416.7" width="485.1" zoomAndPan="magnify"><g id="change1_1"><path d="M12.042,416.667c-7.87-11.228-11.068-23.511-11.448-36.151c-0.704-23.445-0.764-46.93-0.279-70.381 c0.186-8.988,0.083-19.475,4.46-26.609c14.579-23.761,22.288-52.474,46.356-69.622c13.687-9.752,28.854-15.72,46.411-16.972 c28.728-2.049,53.423,6.459,77.009,21.959c14.738,9.686,30.626,17.755,46.486,25.557c14.304,7.037,30.263,7.079,44.984,3.098 c15.89-4.298,26.244-17.42,33.803-31.464c8.83-16.405,16.417-33.518,23.861-50.621c7.058-16.216,12.424-33.201,20.012-49.144 c8.395-17.637,18.575-34.418,27.764-51.686c3.997-7.511,8.238-15.034,11.018-23.022c6.933-19.922,24.831-32.819,44.628-31.078 c12.423,1.093,23.311,6.854,26.791,18.471c3.654,12.197,4.045,25.992-6.237,36.508c-8.827,9.029-19.022,16.642-32.175,17.276 c-11.791,0.569-18.599,6.959-22.685,16.851c-9.121,22.084-18.648,44.057-26.481,66.606c-13.089,37.68-29.593,73.798-50.392,107.628 c-18.094,29.43-55.44,43.531-86.851,38.375c-13.627-2.237-27.056-8.046-37.621-19.295c-18.192-19.37-40.754-32.98-64.448-44.859 c-19.448-9.75-36.387-3.687-52.072,7.745c-16.862,12.29-29.4,28.601-39.028,47.125c-13.054,25.115-17.918,52.292-20.402,80.104 C14.508,394.28,13.207,405.467,12.042,416.667z" fill="#940d00"/></g><g id="change2_1"><path d="M450.082,27.394c11.696-5.798,9.699-17.382,14.37-27.394c1.144,6.076,2.288,12.151,3.411,18.12 c5.252,2.374,12.773-4.299,17.098,6.145c-11.359,2.286-22.249,4.478-33.14,6.669C451.241,29.754,450.661,28.574,450.082,27.394z" fill="#071332"/></g><g id="change3_1"><path d="M433.267,60.754c-1.302,0.307-4.713-2.272-4.699-3.499c0.056-5.132,3.352-6.86,8.316-6.061 C439.522,56.076,438.369,59.551,433.267,60.754z M413.057,32.4c0.393,1.165,2.812,1.646,4.299,2.441 c1.222-2.398,2.444-4.797,4.63-9.088C414.225,25.849,411.415,27.534,413.057,32.4z" fill="#284da1"/></g><g id="change4_1"><path d="M197.661,232.527c1.3,0.7,2.608,1.387,3.916,2.075c4.622,5.431,2.5,10.891,1.403,15.78 c-5.087,22.655-8.656,33.017-15.145,38.848c-1.976-1.964-4.005-3.858-6.07-5.705C186.765,266.577,194.626,250.989,197.661,232.527z M261.589,248.599c-1.49,0.314-2.987,0.589-4.493,0.814c-0.015,18.53-0.122,37.061,0.19,55.584c0.03,1.767,1.37,3.519,3.253,6.334 c1.345-0.284,2.685-0.598,4.02-0.942C271.446,287.537,265.878,268.022,261.589,248.599z M130.383,201.736 c-7.993,14.629-4.698,30.258-5.254,45.459c0.625,0.283,1.252,0.581,1.882,0.896c2.565,1.286,5.114,2.597,7.648,3.929 C136.991,234.826,137.82,218.264,130.383,201.736z M163.727,263.566c3.053-13.833,5.733-27.764,7.993-41.75 c0.301-1.862,0.193-3.517-0.328-4.951c-3.207-2.013-6.437-3.896-9.697-5.638c-2.056,17.697-4.095,35.238-6.132,52.769 c1.654,1.042,3.295,2.101,4.92,3.182C161.998,266.07,163.424,264.942,163.727,263.566z M227.256,248.874 c-3.535,15.876-6.982,30.962-10.203,46.097c-0.787,3.7-1.446,7.635-0.989,11.315c0.142,1.141,0.923,2.203,1.853,3.246 c1.49,0.486,2.991,0.923,4.5,1.31c1.278-0.922,2.503-1.854,2.691-2.96c2.686-15.875,5.141-31.797,7.19-47.767 C232.797,256.229,232.486,251.685,227.256,248.874z M333.983,232.71c5.989-9.069,6.565-9.225,4.558-16.672 c-4.065-15.083-6.135-31.099-18.175-42.988c-0.147,0.334-0.295,0.668-0.442,1.002C324.054,193.439,325.789,213.304,333.983,232.71z M328.397,154c-0.892,2.267-1.805,4.524-2.737,6.773c10.211,12.566,18.787,24.724,29.729,34.55 c1.38-3.404,2.726-6.825,4.044-10.258C349.352,174.458,338.895,164.203,328.397,154z M293.611,291.064 c-0.68-16.127-1.631-32.254-3.048-48.333c-0.328-3.721-2-6.187-4.661-7.124c-1.497,1.5-3.076,2.902-4.731,4.204 c2.03,20.204,3.964,39.456,5.897,58.694c1.083,0.28,2.167,0.561,3.25,0.841c0.086-0.054,0.172-0.106,0.257-0.161 C291.695,296.474,293.724,293.724,293.611,291.064z M9.351,275.552c-1.464,2.702-2.976,5.369-4.575,7.974 c-0.367,0.598-0.692,1.228-0.999,1.87c0.103,0.106,0.206,0.211,0.311,0.316c6.666,6.731,13.422,13.374,20.101,20.091 c2.427,2.441,4.924,4.398,8.342,4.154c1.068-2.347,2.178-4.683,3.38-6.995c0.211-0.406,0.431-0.805,0.645-1.208 C28.152,291.763,19.275,283.08,9.351,275.552z M365.778,80.548c-0.552-0.525-1.488-0.651-2.721-0.578 c-1.329,2.384-2.658,4.769-3.986,7.153c9.276,9.785,17.192,18.172,25.185,26.446c0.708,0.732,1.397,1.275,2.068,1.651 c1.281-3.074,2.561-6.146,3.839-9.22C382.196,97.353,374.283,88.637,365.778,80.548z M78.444,245.366 c-5.167-12.664-11.214-24.97-16.767-36.985c-0.975,0.103-1.852,0.245-2.649,0.422c-1.544,0.897-3.065,1.849-4.571,2.837 c-0.507,1.107-0.477,2.537,0.149,4.382c4.528,13.345,9.055,26.712,20.102,39.989c0.078-0.057,0.153-0.118,0.231-0.175 c0.198-0.145,0.398-0.284,0.597-0.427C77.14,250.896,79.317,247.507,78.444,245.366z M304.569,206.948 c-0.738,1.46-1.481,2.917-2.236,4.367c1.484,5.406,3.275,10.751,4.104,16.25c2.122,14.068,3.333,28.273,5.334,42.363 c0.217,1.53,1.904,2.858,3.722,4.621c0.143-0.228,0.296-0.448,0.437-0.677c0.453-0.737,0.892-1.48,1.341-2.219 C317.37,257.422,311.613,225.328,304.569,206.948z M92.822,197.402c-0.404,0.05-0.81,0.096-1.212,0.151 c-0.877,18.648,3.174,36.767,10.175,46.092c0.947-0.137,1.899-0.247,2.857-0.317c5.786-11.151-1.989-21.271-3.035-31.561 C101.035,206.138,100.507,200.116,92.822,197.402z M334.942,137.049c-0.096,0.248-0.193,0.496-0.289,0.744 c10.596,11.317,19.575,20.761,28.324,30.388c0.631,0.694,1.276,1.412,1.937,2.04c0.47-1.325,0.946-2.648,1.408-3.977 c0.866-2.492,1.759-4.974,2.664-7.453C361.554,147.402,351.451,139.216,334.942,137.049z M377.525,128.204 c-8.609-8.38-16.414-18.306-29.948-19.727c-0.503,0.987-0.996,1.979-1.49,2.97c9.807,9.538,19.653,19.112,29.882,29.06 c1.284-3.232,2.59-6.458,3.905-9.679C379.16,129.887,378.358,129.015,377.525,128.204z M29.363,237.793 c-1.49,2.353-2.906,4.757-4.271,7.197c2.784,7.52,9.912,13.16,12.886,20.505c2.258,5.576,6.743,9.889,16.487,9.475 c0.601-0.708,1.212-1.409,1.828-2.104C46.336,260.357,39.169,248.019,29.363,237.793z M20.648,343.34 c-0.884-4.664-13.197-15.393-20.554-18.78c-0.05,4.559-0.081,9.118-0.087,13.678c4.059,4.024,8.62,7.413,13.128,10.807 c1.313,0.988,4.597,0.385,6.336-0.601C20.527,347.846,20.96,344.989,20.648,343.34z" fill="#c84337"/></g></svg>