<?xml version="1.0" encoding="UTF-8" standalone="no"?><svg xmlns="http://www.w3.org/2000/svg" xmlns:xlink="http://www.w3.org/1999/xlink" fill="#000000" height="251.3" id="Illustration" preserveAspectRatio="xMidYMid meet" version="1.1" viewBox="-2.8 -4.0 508.9 251.3" width="508.9" x="0" xml:space="preserve" y="0" zoomAndPan="magnify"><g><g id="change1_1"><path d="M497.366394,26.7463932c-40.3254395-3.798645-45.5851135-8.4741783-64.2866821-16.6558762 c-22.9096375-10.0228291-50.419342-14.1006851-75.4487915-5.1142526 c-19.9649353,7.0142665-41.8890381,25.6497726-34.6751709,49.2248192 c9.1252136,26.6123543,38.1890869,36.6011848,59.0809631,51.0753441 c-45.7391357-0.7707291-91.4118958-9.7228851-138.126297-9.4881821 c-23.720459,0.6535187-63.0274963,0.8619614-82.1710968,15.9597855 c-17.8081055,13.6022568-15.1135864,42.0811768,2.4943695,53.8879089 c7.1281586,5.4031372,14.2715302,8.514267,21.9094543,11.7332001c-22.9284363,1.7330475-46.2823334-0.5459747-67.8575592-8.1794891 c-5.1385803-7.3678436-12.6023483-9.0862274-20.2051697-10.2558746 c-13.2475739-2.0382233-46.8761292-4.2799377-66.8493576,5.9104156 c-19.9732285,10.1903687-13.2472954,25.4758911-23.6416683,33.8323059 c-10.3940964,8.3561401-7.744637,17.119751-5.7066765,24.8646698c2.0382369,7.7446289,22.2152061,22.4186707,56.4549866,22.4186707 c19.9831772,0,39.6061554-5.6334229,52.3317947-16.7578888c8.0788574,2.2472382,16.2851639,4.0021057,24.4784698,5.3660889 c49.4147339,7.9201813,100.631897-0.7768097,145.6301422-21.710968 c19.6716309-9.3864441,25.7888184-37.0824738,9.9415283-53.363205c-0.4480896-0.5423889-1.3659058-1.4212189-1.8388977-1.9033356 c1.1502991,0.0992432,2.298645,0.1957245,3.4525146,0.2988434c37.2580261,3.1160889,75.9441833,9.4138184,114.0793457,5.8424072 c17.2914429-2.0437622,35.1766663-4.4319763,49.6862183-16.1458282 c20.2958374-15.6380005,16.7424011-46.8860855-1.3009644-62.6780701 c-11.2433167-11.3113403-24.0762329-19.256958-36.3720093-27.1132774 c-7.3357544-4.5845833-14.5128479-8.8811073-21.3540649-13.0836411c0,0-19.9607849-9.6861153-18.18573-11.7804718 c12.7494202-15.043642,70.335907-1.1256886,90.2872925-1.7521152c3.4384155,0.0898457,9.5055847-0.2781048,12.9155579-0.08708 C491.0255737,31.5004368,506.1095581,29.8293209,497.366394,26.7463932z M253.1301727,160.1612091l-0.0649719,0.0276337 C253.1110992,160.1664581,253.344696,160.0708008,253.1301727,160.1612091z" fill="#940d00"/></g><g id="change2_1"><path d="M166.2763519,182.2923737c1.6033783,2.0338135,1.5724182,4.9414673-0.1257935,6.8967743 c-4.1491699,4.7780914-11.4517822,6.8409271-18.2899475,6.8409271c-2.8863678,0-5.6911926-0.3679504-8.1391296-1.0543518 c-9.9172211-2.8070374-18.7303238-10.796051-23.0478592-20.1122894c-0.6449432-2.0219269,0.1932373-3.9050751,1.9293213-5.5643005 c2.7871323,0.9786072,5.6054993,1.8621368,8.4468079,2.6652069c-1.4129181,0.604599-2.5745392,1.2371063-3.3123779,1.8173676 c3.8431549,6.9761047,10.6594925,12.6261139,17.8343735,14.6568909c1.8552246,0.519989,4.0352783,0.7975464,6.2888641,0.7975464 c5.1195068,0,9.7049255-1.3885956,12.335022-3.6789398c-2.3525543-2.956604-4.8988953-5.9939117-7.6545105-8.6806946 c3.3145905,0.3629761,6.6421661,0.6264343,9.9774933,0.7967224 C163.8151398,179.2044678,165.0663452,180.7572632,166.2763519,182.2923737z M255.4592285,153.069809 c1.9494934,1.859375,1.9246216,4.2536774-0.1221924,5.6735077c-3.8940125,2.7008667-10.1085205,3.8273926-16.5768127,3.8273926 c-5.3461914,0-10.8665314-0.7701874-15.3886414-2.0570374c-12.0162811-3.4412079-22.718338-11.0307465-27.9846344-19.2041626 c-2.3547668-5.1930389,11.2181854-7.8828583,22.2547302-7.8828583c4.7037354,0,8.9466248,0.4884796,11.2997437,1.4801025 C239.8687744,138.7841797,248.2240906,146.1686096,255.4592285,153.069809z M247.4060822,154.8351898 c-5.9698486-5.4578705-12.5752563-10.6296234-20.736496-13.5256805l-0.1852264-0.0657806l-0.1813507-0.0763092 c-0.7770844-0.327301-3.5877075-0.9468231-8.6613312-0.9468231c-5.4476471,0-10.2163391,0.6742554-13.3346405,1.4585266 c5.0689087,5.3666534,12.7892151,9.9703064,20.9349823,12.3032379c4.0034943,1.1392365,8.9344635,1.7944031,13.5182037,1.7944031 C242.034729,155.7767639,245.0197906,155.4417114,247.4060822,154.8351898z M273.3439026,118.5378265 c-5.2306213,5.2986374-16.808197,7.8342056-26.5291443,7.8342056c-1.5809937,0-3.1144409-0.0671768-4.5619049-0.2004242 c-12.4447784-1.1666031-24.3626404-6.6526794-31.0457306-13.7150421 c-4.1925812-5.98423,18.0770874-12.7499695,28.6989746-12.7499695c1.200058,0,2.2522125,0.086525,3.0997925,0.2700882 c11.4548187,1.7963409,21.0284119,7.5135269,29.4119263,12.9622803 C274.6766663,114.4071655,275.093811,116.7649765,273.3439026,118.5378265z M264.8296509,116.1598358 c-6.874115-4.2639084-14.3201904-8.1294479-22.8764648-9.4713211l-0.1937866-0.0304108l-0.191864-0.0414658 c-0.1257782-0.0273666-0.6170197-0.1161041-1.661438-0.1161041c-6.2932892,0-15.0665894,2.4614716-19.8770294,4.6650238 c5.9723511,4.3451843,14.4152832,7.4502258,22.8579407,8.2416916c1.2271576,0.1130676,2.5524292,0.170845,3.9277496,0.170845 C253.5409698,119.5780945,260.3927002,118.2116165,264.8296509,116.1598358z M356.1035767,127.29702 c-5.1112061,4.9442368-15.9550781,7.2351456-25.3857727,7.2351456c-2.0487366,0-4.0311279-0.1080933-5.8731079-0.3206787 c-12.4143677-1.4532776-24.2025757-7.213028-30.7211609-14.4274445 c-3.9764099-5.9634933,17.522522-12.0914764,28.366394-12.0914764c1.4591064,0,2.726593,0.1111374,3.711853,0.3483276 c11.4105835,2.0600739,20.8495483,7.9967499,29.1053467,13.6373596 C357.5314026,123.1981506,357.894104,125.5650864,356.1035767,127.29702z M347.6470947,124.7235794 c-6.7748718-4.4217529-14.1297302-8.4581451-22.6522827-9.9968414l-0.1932373-0.0348282l-0.1910095-0.0458908 c-0.1105957-0.0268173-0.7322998-0.1595154-2.120636-0.1595154c-6.328125,0-14.793457,2.1947098-19.509613,4.2158051 c5.8706055,4.4795303,14.2355957,7.7758789,22.6542053,8.7614059c1.5757446,0.1816254,3.2897034,0.2745132,5.0832825,0.2745132 C337.1023254,127.7382278,343.4379272,126.5547638,347.6470947,124.7235794z M432.1386719,130.0001068 c-5.1112061,4.9442444-15.9550781,7.2351532-25.3857727,7.2351532c-2.0487366,0-4.0311279-0.1080933-5.8730774-0.3206787 c-12.4143677-1.4535522-24.2025757-7.213028-30.7211914-14.4277267 c-3.9761047-5.9634933,17.5222778-12.0914764,28.3658752-12.0914764c1.4590759,0,2.7271423,0.1111374,3.7123718,0.3486023 c11.410614,2.0600739,20.8495789,7.9967575,29.1053467,13.6373596 C433.5665283,125.9012451,433.9292297,128.2678986,432.1386719,130.0001068z M423.6821899,127.4266739 c-6.7748718-4.4217606-14.1296997-8.4581451-22.6522522-9.9968491l-0.193512-0.0348282l-0.19104-0.0461655 c-0.1105652-0.0265427-0.7322998-0.1595078-2.1208801-0.1595078c-6.3278503,0-14.7929077,2.1949768-19.5090942,4.2160721 c5.8703308,4.4792557,14.2355957,7.7756042,22.65448,8.7614136c1.57547,0.1816254,3.2894287,0.2745056,5.0830078,0.2745056 C413.1374207,130.4413147,419.4730225,129.257843,423.6821899,127.4266739z M451.7917786,106.7847214 c-2.3113708,1.0029449-5.1789246,1.440834-8.311615,1.440834c-7.629364,0-16.828949-2.5983124-23.3818054-5.9621124 c-11.1101074-5.7265778-20.1194763-15.2642441-23.68396-24.3103867c-0.7945251-3.413559,4.1242981-4.7214279,10.5483398-4.7214279 c8.4819031,0,19.5856628,2.2820663,23.6104126,5.0105896c9.9567871,5.9416504,16.704834,14.8188858,22.4493713,23.0028 C454.5700684,103.4499512,454.0771484,105.7931061,451.7917786,106.7847214z M444.7786255,101.3987198 c-4.7861023-6.520813-10.2511902-12.8851471-17.6870117-17.3223877l-0.1683655-0.1006241l-0.1625366-0.1100235 c-2.2807007-1.5464401-11.598877-3.8401184-19.7979736-3.8401184c-0.6983032,0-1.3180847,0.0176926-1.8665771,0.0469971 c3.9213867,6.2515564,10.5873413,12.2719955,18.1149597,16.1519165c6.0632935,3.1125031,14.2126465,5.2071381,20.269043,5.2071381 C443.9426575,101.4316177,444.375,101.4200058,444.7786255,101.3987198z M340.7124329,36.0933113 c0.4727173-1.942585,4.1986694-2.6903725,8.8794556-2.6903725c7.6387634,0,17.8191528,1.9926224,20.5449219,4.0374947 c6.478241,4.1270638,9.131012,10.0167465,11.1645508,15.4301147c0.5479126,1.4585304-0.717926,2.9355812-3.0483704,3.4901314 c-1.9337463,0.4600067-4.0540771,0.6648521-6.2485046,0.6648521c-6.9968567,0-14.7406616-2.0838509-19.528717-4.6263237 C344.9235229,48.3700066,340.5526428,41.9824409,340.7124329,36.0933113z M348.7058716,40.2079353 c1.257843,2.1161957,3.5318909,4.3639793,6.9678345,6.1970901c3.4646912,1.8397484,10.0615234,3.8265686,16.33078,3.8265686 c0.2584534,0,0.5127869-0.0035934,0.7632446-0.0105057c-1.419281-2.7058525-3.3010254-5.1521263-6.2814026-7.0507584 l-0.2189331-0.1396027l-0.1022949-0.0765762c-1.7952271-0.9858093-9.691925-2.7572746-16.5732117-2.7572746 C349.2770081,40.1968765,348.9820557,40.2007484,348.7058716,40.2079353z M345.1845093,17.1100368 c-0.4890442-2.3050079-0.0801697-4.6506529,0.868866-6.8033381c3.7831726-2.1778421,7.716156-3.9739127,11.5775452-5.3304334 c4.4546509-1.5995171,8.9883728-2.7777302,13.5602417-3.589376c0.5744629,0.164209,1.1494751,0.327865,1.7101135,0.5285649 c5.6911926,2.7669487-0.8094482,16.1809406-5.1117859,17.59828c-2.8241577,1.2194042-6.0558167,1.6362839-9.4032898,1.6362839 c-3.1744385,0-6.4528198-0.3751373-9.5838623-0.7964401C347.0693054,20.1202583,345.5350342,18.7626305,345.1845093,17.1100368z M351.9414063,13.9054737c2.1543274,0.2562656,4.3534546,0.4506073,6.4447937,0.4506073 c2.8321838,0,5.026886-0.3530216,6.7093201-1.0792456c1.1127014-0.9858074,2.5297546-3.742527,3.047821-5.6801376 c-1.543396-0.3477693-3.134613-0.5280123-4.7006836-0.5280123c-2.7970886,0-5.3882141,0.5852365-7.2959595,1.6478949 C354.3329468,9.7336254,352.5023193,11.9106388,351.9414063,13.9054737z M396.2402344,4.1419511 c5.3080139,3.7350631,11.2554932,7.5829158,17.2336426,8.0130653c0.1733398,0.0281973,0.358551,0.0420198,0.552887,0.0420198 c2.651123,0,7.1381226-2.5452385,10.040802-5.6475167c-2.517334-0.8802042-5.0763855-1.6810684-7.666687-2.40204 c-0.8962402,0.5954647-1.7819824,1.0659761-2.4401855,1.2310143c-2.9347534-0.2114811-6.2559814-1.8684988-9.4881897-3.8940191 c-3.328125-0.5595268-6.686676-0.9700493-10.0615234-1.2144276C394.2907104,1.7252595,395.0036926,3.271699,396.2402344,4.1419511z M186.3383179,132.7208862c-1.4524536,0.2134247-2.957428,0.3112793-4.4817505,0.3112793 c-7.3971405,0-15.2244415-2.3069458-19.460144-4.9085693c-4.2376404-2.6165695-6.6377411-6.1185837-7.0626373-9.6817017 c1.6981964-2.4307861,3.7795715-4.6597748,6.2783661-6.5896454c0.5680847-0.0326157,1.152771-0.0544586,1.7692566-0.0544586 c7.6882324,0,18.6625977,2.4197311,20.8846588,4.4651566c5.0484619,3.8149567,5.8169861,8.9441376,6.1282654,13.6393051 C190.4780884,131.1672668,188.7854156,132.3612366,186.3383179,132.7208862z M183.0643616,126.2116928 c-0.4738312-1.913559-1.3100739-3.3311768-2.8943939-4.5284653l-0.178299-0.1346283 c-1.9937286-1.0314178-10.2058411-2.956871-16.61026-2.956871c-0.3815002,0-0.7248535,0.0074692-1.0330811,0.0196304 c0.600708,1.4433289,2.0758209,2.7793884,3.617569,3.7314682c3.0674438,1.8839798,9.6885986,3.895401,15.8906708,3.895401 C182.2665405,126.2382278,182.6693268,126.2293854,183.0643616,126.2116928z M238.3792877,176.7429962 c-1.5945435-0.7903595-3.2266846-1.5826569-4.8933716-2.3503418c-2.8357849,0.7013397-6.8865509,1.484787-12.0934143,1.9837646 c4.3648071,1.3634338,8.5510254,3.2429962,12.3657074,5.0976715c-3.6875153,4.3272095-12.4273529,8.3542023-20.2455292,9.0790405 c-3.5025635,0.3179169-7.1151581,0.1277161-10.7368774-0.5650482c-5.0882721-0.9728241-9.8182678-2.8692474-13.6083374-5.4266357 c1.3089752-1.4131927,3.8597412-3.5587006,7.9732513-5.8874817c1.0579681-0.5987854,2.0611877-1.120163,3.0057983-1.5768433 c-5.1681519,0.0633087-9.4458771,0.0801697-12.1221619,0.0829315c-4.7554169,3.6941528-7.6644592,7.7225189-5.2126617,10.4502106 c4.8988953,4.126236,11.5858612,7.1538696,18.7836761,8.530304c4.0753784,0.7790222,8.3124542,1.0297546,12.4854126,0.6513062 c9.5912933-0.8896027,22.3210907-6.2720184,26.4194031-14.1299896 C241.6800537,180.4202728,240.7619781,177.9245148,238.3792877,176.7429962z" fill="#ff0f7b"/></g><g id="change3_1"><path d="M121.0698242,219.7649536c28.0523834,15.3290558,45.4082184,16.8920288,47.5575714,17.6965027 c-11.177124,3.9881744-53.527298-6.5701447-53.527298-6.5701447s-21.4469681,16.0675964-50.9161148,16.2210236 c-35.6535263,0.1857758-49.5656776-8.7591858-57.183979-16.4571075c0,0,11.8031416-15.6872101,48.3169708-9.4060822 c22.4418907,3.8603058,34.5217552,6.4384308,40.4996223,7.8521729c3.0693817,0.7259521,9.0467987-0.8236542,11.3366089-2.9928436 C111.066452,222.4013672,113.7330399,215.7558136,121.0698242,219.7649536z M150.1386871,143.1074829 c0,0,0.3836365,11.2796021,11.335556,20.4393768c10.9519196,9.15979,24.6688232,13.8223724,24.6688232,13.8223724 l18.2182465-0.2793884C204.3613129,177.0898438,168.46875,164.3532715,150.1386871,143.1074829z" fill="#000000"/></g><g id="change4_1"><path d="M239.1577606,172.4436951l3.3994598-1.0518646c-4.329422,2.0177765-9.0439453,3.0422821-13.7189178,3.9020386 c-4.693222,0.8409424-9.435379,1.3501587-14.1772614,1.7493439c-4.7490692,0.3179169-9.5014496,0.5772247-14.2579803,0.6203461 c-4.7557068,0.0461578-9.5127869,0.0024872-14.2599182-0.2944183l7.1212463-0.2739563 c2.3721924-0.0815582,4.7432709-0.1802368,7.1124115-0.3021545c4.7388306-0.2230988,9.4749146-0.4727173,14.1966095-0.8774414 c4.7302704-0.3035431,9.4403534-0.8265686,14.1272278-1.4776001c2.3511658-0.2935944,4.6733093-0.7397766,6.9968414-1.1936951 L239.1577606,172.4436951z M253.8735352,140.4011078c-5.8208466-2.3879395-11.7285004-4.571579-17.7105103-6.5221863 c-5.9831238-1.9511566-12.076828-3.5575867-18.2247162-4.8579865c3.0035858,0.9365997,6.0505829,1.6868744,9.0193329,2.7152557 c1.4930878,0.4815674,2.9983368,0.9211121,4.4825745,1.4275665l4.4444275,1.5403595 c5.9026642,2.1142578,11.7887573,4.2804871,17.5576324,6.7425232c5.8119965,2.3542023,11.5413361,4.9096832,17.2419586,7.5303802 c2.8493042,1.3125763,5.6873169,2.6522217,8.5056763,4.0333557c2.8374329,1.344635,5.6370239,2.7639008,8.4410095,4.1837311 c-5.3774414-3.2579193-10.9417419-6.199295-16.5726624-8.9994202 C265.4237366,145.3987122,259.6689453,142.8509827,253.8735352,140.4011078z M408.6844482,101.6328735 c-0.9711609-0.7776489-1.9837952-1.4737396-3.0080261-2.1466064c-2.0561829-1.3316422-4.1505432-2.5844955-6.302124-3.7309189 c-4.2863159-2.3191071-8.6552429-4.4684753-13.1217957-6.4022141c2.1269836,1.1818085,4.2666626,2.3329315,6.3745728,3.541275 c2.1239319,1.1773834,4.2362671,2.3738403,6.3192749,3.6150894c2.0722351,1.2575531,4.1643982,2.4802704,6.1608887,3.8334732 c0.9971313,0.6748047,1.9798889,1.3722763,2.8954773,2.1272507c0.4555969,0.3776245,0.8973389,0.7701797,1.2849426,1.1862335 c0.3787231,0.3931046,0.7461243,0.9122696,0.762146,1.2022629c-0.0024719,0.1163864,0.0135498,0.1255035-0.1423645,0.2427216 c-0.1575623,0.0942688-0.3933716,0.1846619-0.6579285,0.2327652c-0.5280151,0.1075363-1.1096802,0.1315918-1.7048645,0.1285477 l-3.6413269-0.0779572c-2.4277649-0.042572-4.8552246-0.1277161-7.2840881-0.1279907l-7.287384-0.0500412 c-2.4310913,0.0248795-4.8613281,0.0107803-7.2951355,0.069664c2.4246826,0.1976624,4.8529968,0.3220596,7.2807617,0.4854431 l7.2884827,0.3657379c2.4296875,0.1379471,4.8610229,0.1915741,7.2918091,0.2874985l3.6466064,0.1299362 c0.6178589,0.0099487,1.258667,0,1.9246216-0.1249542c0.3317261-0.0613708,0.6839294-0.1608963,1.0471802-0.3776245 c0.3721008-0.1852188,0.7430725-0.7779236,0.6609802-1.2752457c-0.1548157-0.9332886-0.6609802-1.3800201-1.0842285-1.8682251 C409.6448059,102.4320755,409.1690369,102.0237656,408.6844482,101.6328735z M415.5400391,20.965353 c-3.0610962,0.0384254-6.1210938,0.1777554-9.1796875,0.3704376c-3.0577698,0.2103767-6.1083374,0.5451527-9.1440125,1.0029469 c-1.5218201,0.1995945-3.0281677,0.513361-4.5433655,0.766861c-1.4978027,0.3494282-3.0174255,0.5998878-4.4989014,1.0319729 l-2.2262268,0.6220036l-2.191925,0.7494469c-1.4543762,0.4732742-2.9477539,1.0950012-4.2415161,2.101265 c-0.3436279,0.2172871-0.6029358,0.5788784-0.9006653,0.8696995c-0.1418152,0.1556396-0.2388306,0.3613167-0.3577271,0.5415592 c-0.1174927,0.183836-0.2305603,0.3696079-0.2833557,0.5913181c-0.3571472,0.8337612-0.2363586,1.791647,0.041748,2.5715008 c0.6010132,1.5937119,1.7507324,2.7514687,2.9156799,3.7740402c2.3727417,2.0321579,5.0462341,3.5808067,7.7521057,5.0202637 c2.7354431,1.3880348,5.5225525,2.6635551,8.3895874,3.732296c-2.765564-1.3026123-5.4963074-2.6743393-8.1242065-4.2160797 c-2.6270752-1.524044-5.2297974-3.1509323-7.4380493-5.1811523c-1.0834045-1.0117912-2.099884-2.1609764-2.5723267-3.4519806 c-0.5241394-1.295702,0.0558472-2.6196022,1.2196655-3.4481125c1.1320496-0.8583641,2.5101318-1.4372425,3.9573364-1.8859138 l2.1535034-0.7101898l2.1955261-0.5866184c5.849884-1.6147213,11.9181519-2.3785419,17.9709473-3.0273609 c3.0331726-0.296627,6.0751648-0.5329895,9.1232605-0.6833763c3.0475464-0.1843891,6.1000671-0.2769985,9.1575623-0.3256531 C421.6624756,20.986639,418.6011047,20.9686699,415.5400391,20.965353z M116.8516541,224.7224121 c-0.8304443,0.2623596-1.6064224,0.6507568-2.3544846,1.0756531c-0.7353516,0.4467468-1.4369736,0.9429626-2.0799866,1.510788 c-0.6441193,0.5639496-1.248703,1.1793213-1.7388458,1.9047089c1.5716019-0.739212,2.9693069-1.6119537,4.3949432-2.4415741 c1.4228668-0.8478546,2.8059235-1.6382141,4.3529205-2.416687 C118.5531845,224.2911682,117.6785049,224.4606323,116.8516541,224.7224121z" fill="inherit"/></g></g></svg>