<?xml version="1.0" encoding="UTF-8"?><svg xmlns="http://www.w3.org/2000/svg" xmlns:xlink="http://www.w3.org/1999/xlink" height="255.1" preserveAspectRatio="xMidYMid meet" version="1.0" viewBox="84.8 85.0 255.7 255.1" width="255.7" zoomAndPan="magnify"><g><g id="change1_1"><path d="M339.88,212.6c0,31.7-11.58,60.72-30.72,83.03c-1.73,2.02-3.53,3.98-5.39,5.89 c-4.74,4.88-9.88,9.39-15.35,13.45c-21.24,15.83-47.57,25.19-76.09,25.19c-0.39,0-0.77,0-1.16-0.01 c-17.8-0.15-34.72-3.96-50.07-10.7c-8.88-3.89-17.22-8.76-24.9-14.48c-5.56-4.15-10.77-8.73-15.58-13.71 c-1.77-1.82-3.48-3.7-5.13-5.62c-19.14-22.31-30.73-51.33-30.73-83.04c0-70.45,57.12-127.56,127.57-127.56 c48.34,0,90.4,26.9,112.04,66.55c7.18,13.15,12.1,27.7,14.27,43.14C339.46,200.57,339.88,206.54,339.88,212.6z" fill="#aad8f4"/></g><g id="change2_1"><path d="M340.44,212.6c0,31.7-11.58,60.72-30.72,83.03c-1.73,2.02-3.53,3.98-5.39,5.89 c-4.74,4.88-9.88,9.39-15.35,13.45c-21.24,15.83-47.57,25.19-76.09,25.19c-0.39,0-0.77,0-1.16-0.01l-15.44-27.43l46.74-189.19 l96.17,71.2C340.02,200.57,340.44,206.54,340.44,212.6z" fill="#5ec1ed"/></g><g id="change3_1"><path d="M153.06,158.37c1.73-4.45,4.19-8.64,7.22-12.3c6.42-7.77,23.69-23.57,34.84-21.28 c15.73,3.24,29.03,29.53,32.47,43.6c3.63,14.85,3.37,30.35,3.08,45.64c-0.52,27.62-1.08,55.59-8.45,82.22 c-1.5,5.41-3.36,10.92-7.08,15.13c-5.6,6.34-14.38,8.68-22.71,10.13c-17.77,3.08-37.49-1.24-54.16-8.01 c-5.73-2.33-11.48-5.33-15.12-10.34c-4.21-5.82-4.62-14.61-1.08-20.87c4.51-7.98,11.48-6.88,18.64-11.46 c4.54-2.9,7.69-9.53,4.16-13.59c-1.82-2.09-4.74-2.73-7.24-3.92c-8.72-4.18-11.64-17.08-5.57-24.61 c6.87-8.52,21.56-9.3,25.72-19.43c3.6-8.75-3.22-17.94-6.03-26.99C149.32,174.47,150.09,166.03,153.06,158.37z" fill="#092838"/></g><g id="change4_1"><path d="M270.99,268.72l-30.67-9.99c-5.66-1.84-9.49-7.12-9.49-13.07v-23.53h-37.15v23.82 c0,6-3.89,11.3-9.61,13.11l-30.72,9.7c-15.91,4.85-27.96,17.23-32.74,32.51c4.81,4.98,10.02,9.56,15.58,13.71 c7.68,5.72,16.02,10.59,24.9,14.48c15.68,6.89,33,10.71,51.23,10.71c28.52,0,54.85-9.36,76.09-25.19 c5.47-4.06,10.61-8.57,15.35-13.45C299.06,286.11,286.98,273.62,270.99,268.72z" fill="#eec191"/></g><g id="change5_1"><path d="M270.99,268.72l-24.06-7.84c-18.88,13.87-47.14,12.85-66.45-0.69l-27.12,8.56 c-15.91,4.85-27.96,17.23-32.74,32.51c4.81,4.98,10.02,9.56,15.58,13.71c7.68,5.72,16.02,10.59,24.9,14.48 c15.68,6.89,33,10.71,51.23,10.71c28.52,0,54.85-9.36,76.09-25.19c5.47-4.06,10.61-8.57,15.35-13.45 C299.06,286.11,286.98,273.62,270.99,268.72z" fill="#ed6e4a"/></g><g id="change6_1"><path d="M252.33,169.44c-0.1-28.45-17.51-48.88-40.03-48.88c-0.01,0-0.03,0-0.04,0s-0.03,0-0.04,0 c-22.51,0-39.93,20.43-40.03,48.88c-0.05,12.97,0.31,16.2,1.63,25.61c4.1,29.26,31.13,42.78,38.4,42.78 c8.91,0,34.17-13.52,38.27-42.78C251.81,185.64,252.38,182.41,252.33,169.44z" fill="#fbcb98"/></g><g id="change6_2"><path d="M172.19,173.77c-1.19-1.29-3.01-1.92-4.03-0.13c-1.48,2.56-1.32,5.99-1.11,8.82 c0.17,2.29,0.46,4.59,1.06,6.81c0.52,1.93,1.23,4.57,2.94,5.77c0.39,0.27,0.93,0.54,1.42,0.65c0.27,0.06,1.91,0.09,1.36-0.63" fill="#fbcb98"/></g><g id="change6_3"><path d="M252.12,173.77c1.19-1.29,3.01-1.92,4.03-0.13c1.48,2.56,1.32,5.99,1.11,8.82 c-0.17,2.29-0.46,4.59-1.06,6.81c-0.52,1.93-1.23,4.57-2.94,5.77c-0.39,0.27-0.93,0.54-1.42,0.65 c-0.27,0.06-1.91,0.09-1.36-0.63" fill="#fbcb98"/></g><g id="change3_2"><path d="M235.13,187.76c-0.64,5.54-5.2,11.26-2.1,15.81c1.87,2.74,5.75,3.4,7.87,5.95 c3.11,3.75,0.97,9.5-2.07,13.3c-3.04,3.8-7.06,7.3-7.81,12.11c-1.28,8.22,7.33,14.23,11.03,21.68 c4.36,8.77,0.84,20.63-7.59,25.61c8.52,0.75,16.84-5.18,20.04-13.11c3.2-7.93,1.71-17.28-2.75-24.58 c-1.37-2.24-3.03-4.38-3.74-6.91c-1.42-5.06,1.4-11.59,4.29-15.71c3.41-4.84,9.37-8.69,6.74-15.54 c-0.89-2.31-2.39-4.46-2.59-6.93c-0.25-3.15,1.64-6.01,3.35-8.67c3.25-5.05,6.19-10.56,6.59-16.55 c0.42-6.19-1.9-12.19-4.18-17.96c-8.21-20.78-19.34-40.44-43.73-42.97c-22.21-2.3-32.59,19.37-26.46,38.64 c2.61,8.19,8.75,15.35,16.76,18.48c5.18,2.03,10.89,2.36,16.11,4.28c5.22,1.92,10.27,6.25,10.29,11.81 C235.2,186.92,235.18,187.34,235.13,187.76z" fill="#092838"/></g><g id="change3_3"><path d="M190.15,161.84c4.26-5.47,8.53-11.03,11.33-17.37c1.34-3.05,2.34-6.34,2.1-9.66 c-0.24-3.32-1.89-6.68-4.8-8.29c-2.7-1.5-6.09-1.31-8.99-0.22c-2.89,1.09-5.4,2.99-7.86,4.87c-5.31,4.04-10.82,8.33-13.6,14.4 c-3.14,6.86-2.53,19.23,3.55,24.65C179.33,176.86,185.57,167.72,190.15,161.84z" fill="#092838"/></g></g></svg>