<?xml version="1.0" encoding="UTF-8" standalone="no"?><svg xmlns="http://www.w3.org/2000/svg" xmlns:xlink="http://www.w3.org/1999/xlink" fill="#000000" height="112.7" preserveAspectRatio="xMidYMid meet" version="1" viewBox="4.1 6.0 293.9 112.7" width="293.9" zoomAndPan="magnify"><g id="change1_1"><path d="M21.8,118.7c-8.2,0-13.4-3-15.6-8.8c-2.1-5.7-1.3-14.3,2.4-25.7l15.3-47c3.3-10.2,8.2-18,14.4-23.2 C44.6,8.7,52.3,6,61.4,6c7.4,0,12.7,1.5,15.9,4.5c3.2,3,4.7,7.5,4.4,13.2c-0.3,5.6-1.8,12.8-4.6,21.4l-0.2,0.5H53.9l3.5-10.8 c0.8-2.5,1.1-4.4,0.9-5.7c-0.1-0.7-0.5-1.5-2.4-1.5c-3.8,0-6.5,2.5-8.2,7.6L30.5,88.1c-1,3.2-1.4,5.6-1.1,7.1 c0.2,0.9,0.6,1.9,2.9,1.9c1.9,0,3.4-0.7,4.7-2.3c1.3-1.6,2.5-4.1,3.6-7.3L45.3,73h-5.8L46,52.6h28.3l-21.1,65.1h-10l-0.6-8.1 C36.6,115.7,29.6,118.7,21.8,118.7z M61.4,7.5c-8.7,0-16.1,2.5-22.1,7.6c-6,5.1-10.7,12.6-13.9,22.5L10,84.6 C6.4,95.7,5.6,104,7.6,109.4c1.9,5.3,6.6,7.8,14.2,7.8c7.9,0,14.9-3.3,20.8-9.9l1.2-1.3l0.8,10.2h7.5l20.2-62H47.1l-5.6,17.3h5.8 L42,88.1c-1.1,3.4-2.4,6-3.8,7.7c-1.5,1.9-3.5,2.8-5.9,2.8c-3.2,0-4.1-1.7-4.4-3.2c-0.3-1.8,0.1-4.4,1.2-7.9l17.2-52.9 c1.9-5.7,5.1-8.7,9.6-8.7c2.8,0,3.7,1.5,3.9,2.8c0.3,1.6,0,3.7-0.9,6.5L56,44.1h19.8c2.7-8.3,4.1-15.2,4.4-20.5 c0.3-5.3-1.1-9.3-3.9-12C73.3,8.9,68.3,7.5,61.4,7.5z M263.4,117.7h-46.7L252.7,7H298l-7.3,22.6h-21.5l-6.4,19.7h20.6l-7.2,22.1 h-20.6L247.9,95h22.9L263.4,117.7z M218.8,116.2h43.5l6.4-19.7h-22.9l8.6-26.6h20.6l6.2-19.1h-20.6l7.4-22.7h21.5l6.4-19.6h-42.1 L218.8,116.2z M208.6,117.7h-21.5l22.5-69.2L176,117.7h-20.9L166,47.5l-22.8,70.3h-21.3L157.9,7h34.8l-11.5,61.5L209.5,7h35.1 L208.6,117.7z M189.2,116.2h18.4l35-107.7h-32l-33.1,71.7l13.4-71.7H159l-35,107.7h18.1L167.5,38l1.5,0.3l-12.1,77.8h18.2L213,37.9 l1.4,0.6L189.2,116.2z M116.9,117.7H94.6l4.2-17.7H87.1l-7,17.7H57.2L103.9,7h38.4L116.9,117.7z M96.6,116.2h19.2L140.4,8.5h-35.5 L59.5,116.2h19.6l7-17.7h14.7L96.6,116.2z M104.4,82.6H92.8l22.7-57.1h2.5L104.4,82.6z M95,81.1h8.2l12.2-51.2L95,81.1z" fill="#ff0f7b"/></g></svg>