<?xml version="1.0" encoding="UTF-8" standalone="no"?><svg xmlns="http://www.w3.org/2000/svg" xmlns:xlink="http://www.w3.org/1999/xlink" fill="#000000" height="126" preserveAspectRatio="xMidYMid meet" version="1" viewBox="0.0 0.0 126.0 126.0" width="126" zoomAndPan="magnify"><linearGradient gradientUnits="userSpaceOnUse" id="a" x1="63" x2="63" xlink:actuate="onLoad" xlink:show="other" xlink:type="simple" y1="0" y2="126"><stop offset="0" stop-color="#1f41bb"/><stop offset="1" stop-color="#cc57c7"/></linearGradient><path d="M118.067,30.291l-67.015,0.084c0.005-0.416,0-0.836-0.031-1.266 c1.074,0.197,2.192,0.012,2.978-0.401c0.277-0.146,0.47-0.414,0.521-0.723s-0.046-0.624-0.262-0.851 c-1.492-1.569-2.114-3.495-2.772-5.533c-0.842-2.603-1.711-5.294-4.426-7.389c-2.308-1.782-4.878-1.646-6.152-1.426 c-0.721-1.065-2.44-2.978-5.825-3.682c-4.581-0.953-9.56,0.636-13.318,4.25c-1.434,1.379-2.615,3.244-3.758,5.046 c-1.759,2.774-3.42,5.395-5.793,6.21c-0.358,0.123-0.616,0.438-0.666,0.814s0.117,0.748,0.431,0.96 c1.132,0.765,2.307,1.109,3.533,1.032c-0.23,1.035-0.296,2.074-0.202,3.139c-3.837,0.528-6.173,4.22-6.173,7.666v31.365H2V49.619 c0-0.552-0.447-1-1-1s-1,0.448-1,1v20.968c0,0.552,0.447,1,1,1h8.136v28.641c0,4.374,3.559,7.932,7.932,7.932h36.314v7.666H41.224 c-2.806,0-5.088,2.282-5.088,5.087c0,2.806,2.282,5.088,5.088,5.088h52.688c2.806,0,5.088-2.282,5.088-5.088 c0-2.805-2.282-5.087-5.088-5.087H81.753v-7.666h36.315c4.373,0,7.932-3.558,7.932-7.932V38.222 C126,33.849,122.441,30.291,118.067,30.291z M118.068,32.291c3.271,0,5.932,2.661,5.932,5.932v57.487H69.011 c-0.083-3.901-0.567-17.984-3.26-23.184c-0.161-0.311-0.378-0.625-0.626-0.939h0.586c0.553,0,1-0.448,1-1V49.619 c0-0.552-0.447-1-1-1s-1,0.448-1,1v19.968h-1.653C56.95,64.758,43.683,60.12,40.752,59.13l-0.749-1.405v-2.811 c2.5-1.996,4.332-4.958,5.102-8.001c2.876-1.476,4.854-5.077,5.284-7.88c0.221-1.437,0.057-2.661-0.452-3.568 c0.451-0.971,0.764-2.004,0.942-3.091L118.068,32.291z M58.577,80.951c-0.553,0-1,0.448-1,1v13.758H44.02l3.085-9.779 c0.079-0.253,0.056-0.528-0.067-0.764L43.558,78.5l3.618-6.323c0.171-0.298,0.176-0.664,0.015-0.967l-5.051-9.477 c4.885,1.753,12.532,4.82,17.435,7.854h-9.235c-0.553,0-1,0.448-1,1s0.447,1,1,1h12.032c0.739,0.64,1.297,1.264,1.605,1.859 c2.457,4.746,2.944,18.44,3.033,22.264h-7.431V81.951C59.577,81.399,59.13,80.951,58.577,80.951z M40.003,95.709V61.978l5.162,9.685 l-3.615,6.318c-0.169,0.296-0.176,0.657-0.019,0.959l3.541,6.783l-3.151,9.985H40.003z M37.005,95.709l-1.031-26.96l1.023-1.673 l1.005-1.245v29.879H37.005z M28.709,95.709V65.831l1.003,1.243l1.024,1.675l-1.03,26.96H28.709z M24.79,95.709l-3.151-9.985 l3.542-6.783c0.157-0.302,0.15-0.664-0.019-0.959l-3.616-6.318l5.163-9.686v33.732H24.79z M18.787,36.102 c0.444-0.375,1.079-0.302,1.329-0.251c0.494,0.097,0.878,0.335,1.079,0.562v7.429c0,0.123,0.015,0.249,0.019,0.373 c-1.537-1.409-2.633-3.638-2.916-5.484C18.109,37.5,18.292,36.518,18.787,36.102z M23.195,43.841v-9.998 c0-1.769,1.308-3.018,2.822-4.465c0.896-0.857,1.868-1.785,2.636-2.914c1.208,2.537,3.343,4.371,6.373,5.469 c0.424,0.154,0.903,0.003,1.162-0.369c0.259-0.372,0.234-0.872-0.059-1.218c-0.71-0.837-1.127-1.944-1.246-3.305 c1.451,1.073,2.969,1.777,4.354,2.42c2.812,1.304,4.278,2.091,4.278,4.382v9.998c0,5.231-4.532,11.55-10.161,11.55 C27.728,55.392,23.195,49.073,23.195,43.841z M47.925,36.102c0.494,0.417,0.677,1.399,0.488,2.629 c-0.283,1.847-1.38,4.075-2.916,5.484c0.004-0.124,0.019-0.25,0.019-0.373v-7.429c0.201-0.228,0.584-0.465,1.077-0.562 C46.845,35.801,47.479,35.726,47.925,36.102z M36.347,64.698l-1.651-3.071l3.308-1.917v2.936L36.347,64.698z M33.355,57.392 c1.658,0,3.223-0.434,4.647-1.17V57.4l-4.647,2.693L28.709,57.4v-1.178C30.133,56.958,31.698,57.392,33.355,57.392z M30.364,64.698 l-1.655-2.051v-2.936l3.307,1.917L30.364,64.698z M32.601,67.964l-0.916-1.498l1.671-3.106l1.671,3.106l-0.916,1.498 c-0.103,0.168-0.153,0.363-0.146,0.56l1.039,27.186h-3.297l1.038-27.186C32.754,68.327,32.703,68.132,32.601,67.964z M14.898,25.416 c1.937-1.432,3.385-3.717,4.796-5.944c1.13-1.781,2.196-3.464,3.456-4.676c3.282-3.156,7.589-4.552,11.524-3.734 c3.641,0.757,4.78,3.167,4.824,3.262c0.204,0.469,0.731,0.707,1.222,0.552c0.114-0.036,2.812-0.86,5.116,0.918 c2.225,1.717,2.963,4.002,3.745,6.421c0.541,1.674,1.096,3.392,2.157,4.964c-0.461-0.024-0.934-0.155-1.295-0.446 c-0.324-0.263-0.778-0.295-1.136-0.083c-0.359,0.211-0.549,0.624-0.478,1.034c0.419,2.38,0.253,4.523-0.477,6.396 c-0.645-0.26-1.383-0.342-2.146-0.192c-0.24,0.047-0.468,0.124-0.691,0.208v-0.253c0-3.675-2.641-4.9-5.437-6.197 c-1.778-0.825-3.793-1.76-5.443-3.469c-0.272-0.281-0.682-0.376-1.048-0.25c-0.368,0.128-0.628,0.458-0.667,0.845 c-0.148,1.485-0.072,2.815,0.227,3.983c-1.754-1.223-2.861-2.916-3.36-5.12c-0.101-0.444-0.489-0.764-0.944-0.778 c-0.487-0.004-0.863,0.282-0.991,0.718c-0.521,1.781-1.892,3.09-3.217,4.356c-1.691,1.617-3.44,3.288-3.44,5.912v0.253 c-0.224-0.084-0.452-0.161-0.693-0.208c-0.766-0.152-1.511-0.068-2.159,0.197c-1.275-2.856-1.405-5.198-0.44-7.658 c0.146-0.371,0.058-0.793-0.226-1.074c-0.282-0.281-0.705-0.366-1.075-0.22C16.01,25.368,15.45,25.462,14.898,25.416z M15.661,32.522c0.249,0.942,0.628,1.917,1.118,2.934c-0.513,0.909-0.678,2.135-0.457,3.577c0.43,2.803,2.409,6.405,5.286,7.881 c0.77,3.043,2.602,6.005,5.102,8.001v2.81L25.96,59.13c-1.675,0.565-8.724,3.004-14.824,5.98V38.222 C11.136,35.64,12.85,32.867,15.661,32.522z M16.372,69.587h-5.236v-2.241c4.749-2.4,10.332-4.508,13.439-5.616l-5.054,9.481 c-0.161,0.303-0.156,0.668,0.015,0.967l3.619,6.323l-3.48,6.667c-0.123,0.236-0.146,0.51-0.067,0.764l3.086,9.779H11.136V71.587 h5.236c0.553,0,1-0.448,1-1S16.925,69.587,16.372,69.587z M97,120.912c0,1.703-1.385,3.088-3.088,3.088H41.224 c-1.703,0-3.088-1.385-3.088-3.088s1.385-3.087,3.088-3.087h13.158h26.371h13.159C95.615,117.825,97,119.209,97,120.912z M79.753,115.825H55.382v-7.666h24.371V115.825z M118.068,106.159H80.753H54.382H17.067c-3.271,0-5.932-2.661-5.932-5.932v-2.518 h12.918c0.001,0,0.002,0,0.003,0s0.002,0,0.003,0h18.592c0.001,0,0.002,0,0.003,0s0.002,0,0.003,0h25.369h0.01H124v2.518 C124,103.498,121.339,106.159,118.068,106.159z M0,21.968V1c0-0.552,0.447-1,1-1h15.372c0.553,0,1,0.448,1,1s-0.447,1-1,1H2v19.968 c0,0.552-0.447,1-1,1S0,22.52,0,21.968z M49.339,1c0-0.552,0.447-1,1-1h15.372c0.553,0,1,0.448,1,1v20.968c0,0.552-0.447,1-1,1 s-1-0.448-1-1V2H50.339C49.786,2,49.339,1.552,49.339,1z M77.643,66.563h39.188c2.712,0,4.919-2.207,4.919-4.919v-18.98 c0-2.712-2.207-4.919-4.919-4.919H77.643c-2.712,0-4.919,2.207-4.919,4.919v18.98C72.724,64.356,74.931,66.563,77.643,66.563z M74.724,42.664c0-1.609,1.31-2.919,2.919-2.919h39.188c1.609,0,2.919,1.31,2.919,2.919v18.98c0,1.609-1.31,2.919-2.919,2.919 H77.643c-1.609,0-2.919-1.31-2.919-2.919V42.664z M77.681,46.677c0-0.552,0.447-1,1-1h37.111c0.553,0,1,0.448,1,1s-0.447,1-1,1 H78.681C78.128,47.677,77.681,47.229,77.681,46.677z M77.681,52.154c0-0.552,0.447-1,1-1h37.111c0.553,0,1,0.448,1,1s-0.447,1-1,1 H78.681C78.128,53.154,77.681,52.706,77.681,52.154z M116.792,75.592c0,0.552-0.447,1-1,1H78.681c-0.553,0-1-0.448-1-1s0.447-1,1-1 h37.111C116.345,74.592,116.792,75.04,116.792,75.592z M116.792,84.142c0,0.552-0.447,1-1,1H78.681c-0.553,0-1-0.448-1-1 s0.447-1,1-1h37.111C116.345,83.142,116.792,83.59,116.792,84.142z M112.646,59.532c0,0.552-0.447,1-1,1H92c-0.553,0-1-0.448-1-1 s0.447-1,1-1h19.646C112.199,58.532,112.646,58.979,112.646,59.532z" fill="url(#a)"/></svg>