<?xml version="1.0" encoding="UTF-8" standalone="no"?><svg xmlns="http://www.w3.org/2000/svg" xmlns:xlink="http://www.w3.org/1999/xlink" fill="#000000" height="255.3" preserveAspectRatio="xMidYMid meet" version="1" viewBox="85.7 84.9 253.8 255.3" width="253.8" zoomAndPan="magnify"><g><g id="change1_1"><path d="M156.38,173.08c-1.66-1.82-4.22-2.69-5.66-0.19c-2.07,3.6-1.86,8.41-1.56,12.39 c0.24,3.22,0.65,6.44,1.48,9.56c0.73,2.7,1.72,6.42,4.13,8.1c0.55,0.38,1.3,0.76,1.99,0.91c0.38,0.08,2.68,0.12,1.91-0.88" fill="#fbcb98"/></g><g id="change1_2"><path d="M268.63,173.08c1.66-1.82,4.22-2.69,5.66-0.19c2.07,3.6,1.86,8.41,1.56,12.39 c-0.24,3.22-0.65,6.44-1.48,9.56c-0.73,2.7-1.72,6.42-4.13,8.1c-0.55,0.38-1.3,0.76-1.99,0.91c-0.38,0.08-2.68,0.12-1.91-0.88" fill="#fbcb98"/></g><g id="change2_1"><path d="M335.72,340.16c1.28-1.39,2.55-2.8,3.78-4.24c-7.55-19.3-23.59-34.7-44.28-41.05l-33.2-12.25 c-13.34-4.36-14.05-12.7-14.05-26.74v-29.8h-70.76v29.83c0,14.02,0.6,21.39-12.71,25.77l-34.47,13.24 c-20.71,6.32-36.76,21.72-44.34,41.02c1.23,1.43,2.49,2.84,3.77,4.23H335.72z" fill="#e8bd8e"/></g><g id="change3_1"><path d="M335.72,340.16c1.28-1.39,2.55-2.8,3.78-4.24c-7.55-19.3-23.59-34.7-44.28-41.05l-33.2-12.25 c-2.91-0.96-5.2-2.11-7.02-3.46c-0.58,0.35-1.26,0.84-2.02,1.45c-23.61,18.9-57.53,17.43-79.61-3.25 c-0.14-0.13-0.27-0.26-0.41-0.38c-1.87,1.87-4.57,3.41-8.45,4.69l-34.47,13.24c-20.71,6.32-36.76,21.72-44.34,41.02 c1.23,1.43,2.49,2.84,3.77,4.23H335.72z" fill="#071332"/></g><g id="change4_1"><path d="M182.14,340.16c-5.57-20.09-10.87-39.86-17.64-58.48l-34.47,13.24c-20.71,6.32-36.76,21.72-44.34,41.02 c1.22,1.43,2.48,2.83,3.77,4.23H182.14z" fill="#1f41bb"/></g><g id="change4_2"><path d="M335.72,340.16c1.28-1.39,2.55-2.8,3.78-4.24c-7.55-19.3-23.59-34.7-44.28-41.05l-28.05-10.36 c-7.93,18.22-14.84,36.83-21.25,55.64H335.72z" fill="#1f41bb"/></g><g id="change1_3"><path d="M268.92,167.01c-0.14-39.95-24.94-61.2-56.55-61.2c-0.02,0,0.02,0,0,0c-0.02,0-2.39-2.61-2.41-2.61 c-31.62,0-53.44,23.86-53.58,63.81c-0.07,18.21,0.56,30.21,2.41,43.43c5.76,41.09,43.58,52.61,53.8,52.61 c12.51,0,48.16-11.52,53.92-52.61C268.36,197.22,268.99,185.22,268.92,167.01z" fill="#fbcb98"/></g><g id="change5_1"><path d="M161.47,179.56c1.33-10.04,5.08-18.74,10.45-27.64c2.06-3.41,4.8-7.03,8.75-7.49 c4.16-0.49,7.74,2.7,10.9,5.45c4.61,4,9.73,7.59,15.56,9.39s12.48,1.63,17.7-1.53c4.84-2.92,8.37-8.24,13.89-9.44 c3.87-0.85,7.97,0.61,11.09,3.04c3.13,2.43,5.43,5.75,7.56,9.09c6.2,9.75,9.36,19.73,10.36,31.32 c-1.15-13.32,3.64-26.98,4.47-40.26c0.58-9.26,0.2-18.57-1.14-27.75c-0.47-3.21-2.12-21.6-5.14-23.16 c-1.56-0.8-2.74,1.67-4.36,2.34c-2.18,0.89-4.14-1.78-4.61-4.09c-0.47-2.31-0.71-5.13-2.81-6.19 c-4.19-2.12-8.09,5.77-12.59,4.45c-2.57-0.75-3.32-3.93-4.13-6.48c-0.82-2.55-3.3-5.38-5.68-4.14 c-0.9,0.47-1.44,1.4-1.96,2.26c-2.15,3.5-5.2,6.81-9.23,7.63c-4.83,0.98-10.14-2.46-11.2-7.27c-0.34-1.52-0.56-3.46-2.04-3.95 c-0.72-0.24-1.51-0.01-2.21,0.26c-3.53,1.35-6.62,3.82-8.71,6.96c-1.48,2.22-2.51,4.79-4.45,6.63 c-1.94,1.83-5.31,2.61-7.19,0.72c-1.46-1.47-1.4-3.8-1.61-5.86c-0.21-2.06-1.22-4.49-3.28-4.69 c-1.99-0.19-3.41,1.82-4.38,3.57c-1.84,3.33-4.06,9.99-7.27,11.81c-1.53-2.2-2.69-4.74-3.95-7.14 c-0.65-1.24-1.47-2.61-2.85-2.88c-2.31-0.45-3.75,2.4-4.32,4.69c-3.91,15.82-6.17,32.06-6.75,48.35 c-0.5,14.02,5.55,26.87,6.37,41.02c0.14,2.34,0,4.32-0.25,6.56c-0.2,1.8,0.09,4.15,0.66,5.85 c-1.87-5.52,3.58-14.67,4.22-20.32C161.38,180.3,161.42,179.93,161.47,179.56z" fill="#af917d"/></g></g></svg>