<?xml version="1.0" encoding="UTF-8"?><svg xmlns="http://www.w3.org/2000/svg" xmlns:xlink="http://www.w3.org/1999/xlink" height="255.1" preserveAspectRatio="xMidYMid meet" version="1.0" viewBox="85.0 85.0 255.1 255.1" width="255.1" zoomAndPan="magnify"><g><g id="change1_1"><path d="M340.16,212.6c0,31.7-11.58,60.72-30.72,83.03c-6.17,7.19-13.14,13.69-20.74,19.34 c-21.24,15.83-47.57,25.19-76.09,25.19c-18.23,0-35.55-3.82-51.23-10.71c-8.88-3.89-17.22-8.76-24.9-14.48 c-7.59-5.67-14.54-12.15-20.71-19.33c-19.14-22.31-30.73-51.33-30.73-83.04c0-70.45,57.12-127.56,127.57-127.56 c48.34,0,90.4,26.9,112.04,66.55C334.54,169.71,340.16,190.5,340.16,212.6z" fill="#98c662"/></g><g id="change2_1"><path d="M340.16,212.6c0,31.7-11.58,60.72-30.72,83.03c-6.17,7.19-13.14,13.69-20.74,19.34 c-21.24,15.83-47.57,25.19-76.09,25.19c-18.23,0-35.55-3.82-51.23-10.71l57.21-193.96l29.62,0.44l-19.51-21.72l95.95,37.37 C334.54,169.71,340.16,190.5,340.16,212.6z" fill="#58b465"/></g><g id="change3_1"><path d="M169.7,171.38c-1.27-1.39-3.22-2.05-4.32-0.14c-1.58,2.74-1.42,6.42-1.19,9.45 c0.19,2.45,0.49,4.91,1.13,7.3c0.55,2.06,1.31,4.9,3.15,6.18c0.42,0.29,0.99,0.58,1.52,0.69c0.29,0.06,2.05,0.09,1.45-0.67" fill="#fbcb98"/></g><g id="change3_2"><path d="M255.36,171.38c1.27-1.39,3.22-2.05,4.32-0.14c1.58,2.74,1.42,6.42,1.19,9.45 c-0.19,2.45-0.49,4.91-1.13,7.3c-0.55,2.06-1.31,4.9-3.15,6.18c-0.42,0.29-0.99,0.58-1.52,0.69c-0.29,0.06-2.05,0.09-1.45-0.67" fill="#fbcb98"/></g><g id="change4_1"><path d="M309.44,295.63c-6.17,7.19-13.13,13.69-20.74,19.34H136.48c-7.6-5.67-14.55-12.15-20.71-19.33 c5.78-14.73,18.03-26.48,33.83-31.3l26.3-10.1c10.16-3.34,9.7-8.96,9.7-19.66v-22.76h53.99v22.74c0,10.71,0.54,17.07,10.72,20.4 l25.33,9.35C291.44,269.15,303.68,280.9,309.44,295.63z" fill="#ecc090"/></g><g id="change5_1"><path d="M275.64,264.31l-20.8-7.68c-21.03,21.37-67.82,22.96-83.4-0.68l-21.84,8.39 c-15.8,4.82-28.05,16.57-33.83,31.3c23.39,27.25,58.09,44.52,96.83,44.52c38.74,0,73.44-17.27,96.83-44.53 C303.68,280.9,291.43,269.15,275.64,264.31z" fill="#ffdd3c"/></g><g id="change3_3"><path d="M255.58,166.74c-0.11-30.48-18.81-47.66-42.94-47.66c-0.01,0,0,4.72,0,0c0-0.01,0.01,0,0,0 c-24.12,0-42.83,17.18-42.94,47.66c-0.05,13.9,0.43,23.05,1.84,33.14c4.39,31.36,33.26,40.15,41.05,40.15 c9.55,0,36.75-8.79,41.14-40.15C255.15,189.79,255.63,180.64,255.58,166.74z" fill="#fbcb98"/></g><g id="change6_2"><path d="M258.48,163.59c-0.04-1.51-0.11-2.99-0.21-4.41c-0.39-5.57-1.77-10.66-3.56-15.92 c-0.83-2.45-1.21-7.36-3.01-9.28c-6.03-6.44-9.13,4.75-10.87,8.4c-1.18,2.48,0.2,8.94,0.5,11.66c0.46,4.12,1.43,7.99,3.16,11.76 c3.37,7.34,9.11,12.24,8.56,21.1c0.91,0.45,2.05-0.28,2.42-1.23C258.01,179.14,258.66,170.95,258.48,163.59z" fill="#092838"/></g><g id="change6_1"><path d="M174.19,178.06c1.19-1.22,2.69-2.22,3.9-3.45c4.18-4.22,2.64-9.51,5.47-14.15c1.52-2.49,4.81-4.15,7.42-2.87 c3.01,1.48,3.63,5.87,6.63,7.36c0.84,0.42,1.79,0.56,2.72,0.66c8.01,0.88,16.29-0.89,23.24-4.97c-1.02,1.52-0.99,3.67,0.07,5.16 c9.97-2.59,19.07-8.47,25.52-16.5c5.02-6.25,3.18-13.66-0.88-20.06c-1.33-2.09-2.87-4.11-4.94-5.48c-2.52-1.67-5.6-2.23-8.58-2.76 c-3.06-0.54-6.12-1.08-9.19-1.62c1.13-1.46,2.46-2.76,3.94-3.86c-6.94-2.17-14.39,0.86-21.67,0.62c0.24-2,1.23-3.9,2.74-5.24 c-4.91,0.08-9.8,0.92-14.46,2.43c-6.87,2.22-13.27,5.88-18.65,10.7c-2.36,2.12-5.3,4.65-6.51,7.62c-1.3,3.19-2.12,7.05-2.82,10.44 c-3.22,15.83-0.68,32.06-0.24,48.01c0.02,0.68,0.08,1.46,0.62,1.88c0.59,0.47,1.52,0.24,2.04-0.31c0.52-0.55,0.73-1.32,0.88-2.06 c0.25-1.21,0.4-2.44,0.45-3.67c0.08-1.9-0.06-3.88,0.71-5.63C172.97,179.46,173.53,178.73,174.19,178.06z" fill="#092838"/></g></g></svg>