<?xml version="1.0" encoding="UTF-8"?><svg xmlns="http://www.w3.org/2000/svg" xmlns:xlink="http://www.w3.org/1999/xlink" height="255.1" preserveAspectRatio="xMidYMid meet" version="1.0" viewBox="85.0 85.0 255.1 255.1" width="255.1" zoomAndPan="magnify"><g><g id="change1_1"><path d="M340.16,212.6c0,31.7-11.58,60.72-30.72,83.03c-6.17,7.19-13.14,13.69-20.74,19.34 c-21.24,15.83-47.57,25.19-76.09,25.19c-18.23,0-35.55-3.82-51.23-10.71c-8.88-3.89-17.22-8.76-24.9-14.48 c-7.59-5.67-14.54-12.15-20.71-19.33c-19.14-22.31-30.73-51.33-30.73-83.04c0-70.45,57.12-127.56,127.57-127.56 c48.34,0,90.4,26.9,112.04,66.55C334.54,169.71,340.16,190.5,340.16,212.6z" fill="#ae6aa9"/></g><g id="change2_1"><path d="M340.16,212.6c0,31.7-11.58,60.72-30.72,83.03c-6.17,7.19-13.14,13.69-20.74,19.34 c-21.24,15.83-47.57,25.19-76.09,25.19c-18.23,0-35.55-3.82-51.23-10.71l57.21-193.96l29.62,0.44l-3.95-19.68l80.39,35.34 C334.54,169.71,340.16,190.5,340.16,212.6z" fill="#8f588b"/></g><g id="change3_1"><path d="M190.43,111.65c-1.75,0.72-3.34,1.58-4.68,2.53c-9.57,6.79-21.04,11.68-28.13,21.59 c-5.93,8.3-8.1,19.19-5.78,29.13c0.96,4.11,2.63,8.03,3.44,12.17c0.7,3.58,0.73,7.29,0.09,10.88 c-1.13,6.37-4.21,13.39-0.74,18.86c4.34,6.84,13.71,8.01,17.34,15.89c1.24,2.68,2.09,5.57,3.75,8.02 c4.21,6.21,12.35,8.11,19.72,9.52c3.66,0.7,7.7,1.4,11.39,0.52c4.89-1.16,5.35-4,7.08-8.28c3.72-9.2,7.24-18.56,9.06-28.36 c1.81-9.76,1.91-19.74,1.92-29.67c0.02-10.81-0.05-21.7-2.07-32.32c-1.76-9.23-2.93-19.06-8.16-26.85 C209.81,108.02,198.49,108.34,190.43,111.65z" fill="#fff599"/></g><g id="change3_2"><path d="M234.62,111.65c1.75,0.72,3.34,1.58,4.68,2.53c9.57,6.79,21.04,11.68,28.13,21.59 c5.93,8.3,8.1,19.19,5.78,29.13c-0.96,4.11-2.63,8.03-3.44,12.17c-0.7,3.58-0.73,7.29-0.09,10.88 c1.13,6.37,4.21,13.39,0.74,18.86c-4.34,6.84-13.71,8.01-17.34,15.89c-1.24,2.68-2.09,5.57-3.75,8.02 c-4.21,6.21-12.35,8.11-19.72,9.52c-3.66,0.7-7.7,1.4-11.39,0.52c-4.89-1.16-5.35-4-7.08-8.28c-3.72-9.2-7.24-18.56-9.06-28.36 c-1.81-9.76-1.91-19.74-1.92-29.67c-0.02-10.81,0.05-21.7,2.07-32.32c1.76-9.23,2.93-19.06,8.16-26.85 C215.25,108.02,226.57,108.34,234.62,111.65z" fill="#fff599"/></g><g id="change4_1"><path d="M169.7,171.38c-1.27-1.39-3.22-2.05-4.32-0.14c-1.58,2.74-1.42,6.42-1.19,9.45 c0.19,2.45,0.49,4.91,1.13,7.3c0.55,2.06,1.31,4.9,3.15,6.18c0.42,0.29,0.99,0.58,1.52,0.69c0.29,0.06,2.05,0.09,1.45-0.67" fill="#fbcb98"/></g><g id="change4_2"><path d="M255.36,171.38c1.27-1.39,3.22-2.05,4.32-0.14c1.58,2.74,1.42,6.42,1.19,9.45 c-0.19,2.45-0.49,4.91-1.13,7.3c-0.55,2.06-1.31,4.9-3.15,6.18c-0.42,0.29-0.99,0.58-1.52,0.69c-0.29,0.06-2.05,0.09-1.45-0.67" fill="#fbcb98"/></g><g id="change5_1"><path d="M309.44,295.63c-6.17,7.19-13.13,13.69-20.74,19.34H136.48c-7.6-5.67-14.55-12.15-20.71-19.33 c5.78-14.73,18.03-26.48,33.83-31.3l26.3-10.1c10.16-3.34,9.7-8.96,9.7-19.66v-22.76h53.99v22.74 c0,10.71,0.54,17.07,10.72,20.4l25.33,9.35C291.44,269.15,303.68,280.9,309.44,295.63z" fill="#ecc090"/></g><g id="change6_1"><path d="M309.44,295.63c-23.39,27.26-58.09,44.53-96.83,44.53s-73.44-17.27-96.83-44.52 c5.78-14.73,18.03-26.48,33.83-31.3l26.3-10.1c2.96-0.98,5.02-2.15,6.45-3.58c0.1,0.1,0.21,0.19,0.31,0.29 c16.85,15.77,42.72,16.9,60.74,2.48c0.58-0.47,1.1-0.84,1.54-1.11c1.39,1.03,3.14,1.91,5.36,2.64l25.33,9.35 C291.44,269.15,303.68,280.9,309.44,295.63z" fill="#fff"/></g><g id="change7_1"><path d="M158.4,260.96l-8.79,3.38c-15.8,4.82-28.05,16.57-33.83,31.3c12.07,14.06,27.16,25.46,44.26,33.2 C168.92,306.98,169.96,281.3,158.4,260.96z" fill="#092838"/></g><g id="change7_2"><path d="M275.64,264.31l-3.34-1.23c-8.34,20.07-6.95,42.02-1.04,62.8c14.59-7.58,27.55-17.88,38.16-30.25 C303.68,280.9,291.44,269.15,275.64,264.31z" fill="#092838"/></g><g id="change4_3"><path d="M255.58,166.74c-0.11-30.48-18.77-52.38-42.89-52.38c-0.01,0-0.03,0-0.04,0c-0.01,0-0.03,0-0.04,0 c-24.12,0-42.78,21.9-42.89,52.38c-0.05,13.9,0.43,23.05,1.84,33.14c4.39,31.36,33.26,40.15,41.05,40.15 c9.55,0,36.75-8.79,41.14-40.15C255.15,189.79,255.63,180.64,255.58,166.74z" fill="#fbcb98"/></g><g id="change8_1"><path d="M255.58,166.74c-0.05-13.64-3.82-25.55-10.12-34.56c-1.49,3.42-3.01,6.82-4.62,10.19 c0.12,9.4,0.14,19.84,6.25,27.46c3.04,3.78,6.65,6.51,7.78,11.52c0.21,0.93,0.22,2,0.16,3.11c0.07-0.1,0.14-0.21,0.21-0.31 C255.51,179.03,255.61,173.44,255.58,166.74z" fill="#472312"/></g><g id="change3_3"><path d="M169.58,177.03c-0.06,3.3-0.14,6.59-0.21,9.91c-0.03,1.76,0.52,4.16,2.28,4.11 c0.9-0.03,1.6-0.77,2.1-1.51c3.07-4.62,2.67-11.86,7.63-14.36c2.01-1.01,4.39-0.88,6.54-1.54c4.02-1.24,6.67-5.02,8.55-8.78 c3.35-6.69,5.28-14.1,5.6-21.58c5.08,13.69,17.01,23.56,29,31.88c3.75,2.6,7.55,5.12,11.41,7.56c2.86,1.81,6.07,3.64,9.41,3.12 c1.4-0.21,2.81-0.92,3.49-2.16c0.46-0.83,0.55-1.81,0.63-2.75c0.77-8.98,2.56-17.65,0.75-26.52 c-1.44-7.04-3.85-13.52-6.58-20.11c-5.48-10.29-18.59-20.4-30.69-21.04c-11.84-0.62-24.74,1.2-34.03,8.7 c-15.29,12.35-15.69,26.08-15.76,44.78C169.7,170.19,169.64,173.61,169.58,177.03z" fill="#fff599"/></g><g id="change7_3"><path d="M175.91,254.24l6.76-3.29c0,0,13.13,12.44,29.93,12.56c16.8,0.12,27.3-7.2,32.36-11.19l5.36,2.64 c0,0-8.89,17.54-36.85,16.21C185.5,269.84,175.91,254.24,175.91,254.24z" fill="#092838"/></g></g></svg>