<?xml version="1.0" encoding="UTF-8"?><svg xmlns="http://www.w3.org/2000/svg" xmlns:xlink="http://www.w3.org/1999/xlink" height="368.6" preserveAspectRatio="xMidYMid meet" version="1.0" viewBox="0.0 0.0 400.7 368.6" width="400.7" zoomAndPan="magnify"><defs><clipPath id="a"><path d="M 208 224 L 289 224 L 289 368.640625 L 208 368.640625 Z M 208 224"/></clipPath><clipPath id="b"><path d="M 144 208 L 241 208 L 241 368.640625 L 144 368.640625 Z M 144 208"/></clipPath><clipPath id="c"><path d="M 144 352 L 161 352 L 161 368.640625 L 144 368.640625 Z M 144 352"/></clipPath><clipPath id="d"><path d="M 0 32 L 400.691406 32 L 400.691406 241 L 0 241 Z M 0 32"/></clipPath></defs><g><g id="change1_1"><path d="M 256.449219 96.179688 L 256.441406 80.148438 L 272.46875 80.140625 L 272.480469 96.179688 L 256.449219 96.179688" fill="#77cb4b"/></g><g id="change1_2"><path d="M 272.46875 80.148438 L 272.46875 96.171875 L 256.449219 96.171875 L 256.449219 80.148438 L 272.46875 80.148438" fill="#77cb4b"/></g><g id="change1_3"><path d="M 224.390625 80.160156 L 224.378906 64.128906 L 240.410156 64.121094 L 240.417969 80.160156 L 224.390625 80.160156" fill="#77cb4b"/></g><g id="change1_4"><path d="M 240.410156 64.128906 L 240.410156 80.148438 L 224.390625 80.148438 L 224.390625 64.128906 L 240.410156 64.128906" fill="#77cb4b"/></g><g id="change1_5"><path d="M 240.410156 80.160156 L 240.398438 64.128906 L 256.449219 64.121094 L 256.460938 80.160156 L 240.410156 80.160156" fill="#77cb4b"/></g><g id="change1_6"><path d="M 256.449219 64.128906 L 256.449219 80.148438 L 240.410156 80.148438 L 240.410156 64.128906 L 256.449219 64.128906" fill="#77cb4b"/></g><g id="change1_7"><path d="M 48.078125 112.210938 L 48.070312 80.148438 L 64.121094 80.140625 L 64.109375 64.128906 L 112.199219 64.121094 L 112.191406 32.070312 L 128.21875 32.058594 L 128.210938 16.03125 L 176.308594 16.019531 L 176.300781 0.0117188 L 224.390625 0 L 224.398438 16.03125 L 288.488281 16.019531 L 288.5 32.070312 L 320.550781 32.058594 L 320.558594 64.128906 L 368.621094 64.121094 L 368.628906 80.148438 L 320.550781 80.160156 L 320.558594 96.171875 L 288.488281 96.179688 L 288.480469 64.128906 L 272.46875 64.140625 L 272.460938 48.089844 L 240.410156 48.101562 L 240.398438 32.070312 L 208.351562 32.078125 L 208.359375 48.089844 L 224.390625 48.078125 L 224.398438 64.128906 L 192.328125 64.140625 L 192.320312 48.089844 L 160.28125 48.101562 L 160.289062 64.128906 L 144.261719 64.140625 L 144.269531 80.148438 L 96.179688 80.160156 L 96.191406 96.171875 L 64.121094 96.179688 L 64.128906 112.210938 L 48.078125 112.210938" fill="#77cb4b"/></g><g id="change1_8"><path d="M 368.621094 64.128906 L 368.621094 80.148438 L 320.550781 80.148438 L 320.550781 96.171875 L 288.488281 96.171875 L 288.488281 64.128906 L 272.46875 64.128906 L 272.46875 48.089844 L 240.410156 48.089844 L 240.410156 32.070312 L 208.351562 32.070312 L 208.351562 48.089844 L 224.390625 48.089844 L 224.390625 64.128906 L 192.328125 64.128906 L 192.328125 48.089844 L 160.28125 48.089844 L 160.28125 64.128906 L 144.261719 64.128906 L 144.261719 80.148438 L 96.179688 80.148438 L 96.179688 96.171875 L 64.121094 96.171875 L 64.121094 112.199219 L 48.078125 112.199219 L 48.078125 80.148438 L 64.121094 80.148438 L 64.121094 64.128906 L 112.199219 64.128906 L 112.199219 32.070312 L 128.21875 32.070312 L 128.21875 16.03125 L 176.308594 16.03125 L 176.308594 0.0117188 L 224.390625 0.0117188 L 224.390625 16.03125 L 288.488281 16.03125 L 288.488281 32.070312 L 320.550781 32.070312 L 320.550781 64.128906 L 368.621094 64.128906" fill="#77cb4b"/></g><g id="change1_9"><path d="M 368.621094 128.238281 L 368.609375 112.199219 L 352.601562 112.210938 L 352.589844 96.171875 L 368.621094 96.160156 L 368.609375 80.148438 L 384.660156 80.140625 L 384.667969 128.238281 L 368.621094 128.238281" fill="#77cb4b"/></g><g id="change1_10"><path d="M 384.660156 80.148438 L 384.660156 128.230469 L 368.621094 128.230469 L 368.621094 112.199219 L 352.601562 112.199219 L 352.601562 96.171875 L 368.621094 96.171875 L 368.621094 80.148438 L 384.660156 80.148438" fill="#77cb4b"/></g><g clip-path="url(#a)" fill="#6f421a" id="change2_1"><path d="M 240.410156 368.640625 L 240.398438 352.609375 L 224.390625 352.621094 L 224.378906 320.550781 L 208.351562 320.558594 L 208.339844 304.519531 L 224.390625 304.511719 L 224.378906 288.5 L 208.351562 288.511719 L 208.339844 272.480469 L 224.390625 272.46875 L 224.378906 240.421875 L 256.449219 240.410156 L 256.441406 224.378906 L 288.488281 224.371094 L 288.5 240.421875 L 272.46875 240.429688 L 272.480469 256.441406 L 240.410156 256.449219 L 240.417969 336.570312 L 256.449219 336.5625 L 256.460938 352.609375 L 272.46875 352.601562 L 272.480469 368.640625 L 240.410156 368.640625" fill="inherit"/><path d="M 288.488281 224.378906 L 288.488281 240.421875 L 272.46875 240.421875 L 272.46875 256.441406 L 240.410156 256.441406 L 240.410156 336.570312 L 256.449219 336.570312 L 256.449219 352.609375 L 272.46875 352.609375 L 272.46875 368.628906 L 240.410156 368.628906 L 240.410156 352.609375 L 224.390625 352.609375 L 224.390625 320.550781 L 208.351562 320.550781 L 208.351562 304.519531 L 224.390625 304.519531 L 224.390625 288.5 L 208.351562 288.5 L 208.351562 272.480469 L 224.390625 272.480469 L 224.390625 240.421875 L 256.449219 240.421875 L 256.449219 224.378906 L 288.488281 224.378906" fill="inherit"/></g><g clip-path="url(#b)" fill="#ac5e1e" id="change3_1"><path d="M 160.28125 368.640625 L 160.269531 352.609375 L 176.308594 352.601562 L 176.300781 336.570312 L 192.328125 336.5625 L 192.320312 272.480469 L 160.28125 272.488281 L 160.269531 256.441406 L 176.308594 256.429688 L 176.300781 240.421875 L 144.261719 240.429688 L 144.25 208.359375 L 160.28125 208.351562 L 160.289062 224.378906 L 192.328125 224.371094 L 192.339844 240.421875 L 224.390625 240.410156 L 224.398438 272.480469 L 208.351562 272.488281 L 208.359375 288.5 L 224.390625 288.488281 L 224.398438 304.519531 L 208.351562 304.527344 L 208.359375 320.550781 L 224.390625 320.539062 L 224.398438 352.609375 L 240.410156 352.601562 L 240.417969 368.640625 L 160.28125 368.640625" fill="inherit"/><path d="M 240.410156 352.609375 L 240.410156 368.628906 L 160.28125 368.628906 L 160.28125 352.609375 L 176.308594 352.609375 L 176.308594 336.570312 L 192.328125 336.570312 L 192.328125 272.480469 L 160.28125 272.480469 L 160.28125 256.441406 L 176.308594 256.441406 L 176.308594 240.421875 L 144.261719 240.421875 L 144.261719 208.359375 L 160.28125 208.359375 L 160.28125 224.378906 L 192.328125 224.378906 L 192.328125 240.421875 L 224.390625 240.421875 L 224.390625 272.480469 L 208.351562 272.480469 L 208.351562 288.5 L 224.390625 288.5 L 224.390625 304.519531 L 208.351562 304.519531 L 208.351562 320.550781 L 224.390625 320.550781 L 224.390625 352.609375 L 240.410156 352.609375" fill="inherit"/></g><g id="change3_2"><path d="M 176.308594 336.578125 L 176.300781 288.5 L 144.261719 288.511719 L 144.25 272.480469 L 112.199219 272.488281 L 112.191406 256.441406 L 160.28125 256.429688 L 160.289062 272.480469 L 192.328125 272.46875 L 192.339844 336.578125 L 176.308594 336.578125" fill="#ac5e1e"/></g><g id="change3_3"><path d="M 192.328125 272.480469 L 192.328125 336.570312 L 176.308594 336.570312 L 176.308594 288.5 L 144.261719 288.5 L 144.261719 272.480469 L 112.199219 272.480469 L 112.199219 256.441406 L 160.28125 256.441406 L 160.28125 272.480469 L 192.328125 272.480469" fill="#ac5e1e"/></g><g clip-path="url(#c)" fill="#ac5e1e" id="change3_6"><path d="M 144.261719 368.640625 L 144.25 352.609375 L 160.28125 352.601562 L 160.289062 368.640625 L 144.261719 368.640625" fill="inherit"/><path d="M 144.261719 352.609375 L 160.28125 352.609375 L 160.28125 368.628906 L 144.261719 368.628906 L 144.261719 352.609375" fill="inherit"/></g><g id="change3_4"><path d="M 160.28125 352.621094 L 160.269531 336.570312 L 176.308594 336.5625 L 176.320312 352.621094 L 160.28125 352.621094" fill="#ac5e1e"/></g><g id="change3_5"><path d="M 160.28125 336.570312 L 176.308594 336.570312 L 176.308594 352.609375 L 160.28125 352.609375 L 160.28125 336.570312" fill="#ac5e1e"/></g><g id="change4_1"><path d="M 128.21875 288.511719 L 128.210938 272.480469 L 144.261719 272.46875 L 144.269531 288.511719 L 128.21875 288.511719" fill="#27813b"/></g><g id="change4_2"><path d="M 128.21875 272.480469 L 144.261719 272.480469 L 144.261719 288.5 L 128.21875 288.5 L 128.21875 272.480469" fill="#27813b"/></g><g id="change4_3"><path d="M 96.179688 288.511719 L 96.167969 272.480469 L 112.199219 272.46875 L 112.210938 288.511719 L 96.179688 288.511719" fill="#27813b"/></g><g id="change4_4"><path d="M 96.179688 288.5 L 96.179688 272.480469 L 112.199219 272.480469 L 112.199219 288.5 L 96.179688 288.5" fill="#27813b"/></g><g id="change4_5"><path d="M 256.449219 288.511719 L 256.441406 272.480469 L 240.410156 272.488281 L 240.398438 256.441406 L 272.46875 256.429688 L 272.460938 240.421875 L 288.488281 240.410156 L 288.480469 224.378906 L 256.449219 224.390625 L 256.441406 192.339844 L 288.488281 192.328125 L 288.480469 176.300781 L 304.53125 176.289062 L 304.519531 160.28125 L 320.550781 160.269531 L 320.539062 144.25 L 336.570312 144.238281 L 336.578125 160.28125 L 352.601562 160.269531 L 352.609375 176.300781 L 336.570312 176.308594 L 336.578125 192.339844 L 320.550781 192.351562 L 320.558594 208.359375 L 304.53125 208.371094 L 304.539062 224.378906 L 336.570312 224.371094 L 336.558594 208.359375 L 368.621094 208.351562 L 368.628906 240.421875 L 352.601562 240.429688 L 352.609375 256.441406 L 336.570312 256.449219 L 336.578125 272.480469 L 320.550781 272.488281 L 320.539062 256.441406 L 304.53125 256.449219 L 304.539062 272.480469 L 288.488281 272.488281 L 288.5 288.511719 L 256.449219 288.511719" fill="#27813b"/></g><g id="change4_6"><path d="M 368.621094 208.359375 L 368.621094 240.421875 L 352.601562 240.421875 L 352.601562 256.441406 L 336.570312 256.441406 L 336.570312 272.480469 L 320.550781 272.480469 L 320.550781 256.441406 L 304.53125 256.441406 L 304.53125 272.480469 L 288.488281 272.480469 L 288.488281 288.5 L 256.449219 288.5 L 256.449219 272.480469 L 240.410156 272.480469 L 240.410156 256.441406 L 272.46875 256.441406 L 272.46875 240.421875 L 288.488281 240.421875 L 288.488281 224.378906 L 256.449219 224.378906 L 256.449219 192.339844 L 288.488281 192.339844 L 288.488281 176.300781 L 304.53125 176.300781 L 304.53125 160.28125 L 320.550781 160.28125 L 320.550781 144.25 L 336.570312 144.25 L 336.570312 160.28125 L 352.601562 160.28125 L 352.601562 176.300781 L 336.570312 176.300781 L 336.570312 192.339844 L 320.550781 192.339844 L 320.550781 208.359375 L 304.53125 208.359375 L 304.53125 224.378906 L 336.570312 224.378906 L 336.570312 208.359375 L 368.621094 208.359375" fill="#27813b"/></g><g id="change4_7"><path d="M 80.140625 272.488281 L 80.128906 256.441406 L 64.121094 256.449219 L 64.109375 240.421875 L 48.078125 240.429688 L 48.070312 224.378906 L 32.058594 224.390625 L 32.050781 208.359375 L 16.039062 208.371094 L 16.03125 192.339844 L 48.078125 192.328125 L 48.089844 208.359375 L 80.140625 208.351562 L 80.148438 224.378906 L 112.199219 224.371094 L 112.210938 240.421875 L 128.21875 240.410156 L 128.210938 208.359375 L 112.199219 208.371094 L 112.191406 192.339844 L 128.21875 192.328125 L 128.210938 176.300781 L 80.140625 176.308594 L 80.128906 144.25 L 96.179688 144.238281 L 96.167969 128.230469 L 112.199219 128.21875 L 112.210938 160.28125 L 160.28125 160.269531 L 160.289062 176.300781 L 192.328125 176.289062 L 192.320312 160.28125 L 240.410156 160.269531 L 240.398438 128.230469 L 272.46875 128.21875 L 272.480469 144.25 L 256.449219 144.261719 L 256.460938 176.300781 L 208.351562 176.308594 L 208.359375 224.378906 L 256.449219 224.371094 L 256.460938 240.421875 L 192.328125 240.429688 L 192.320312 224.378906 L 160.28125 224.390625 L 160.269531 208.359375 L 144.261719 208.371094 L 144.269531 240.421875 L 176.308594 240.410156 L 176.320312 256.441406 L 96.179688 256.449219 L 96.191406 272.488281 L 80.140625 272.488281" fill="#27813b"/></g><g id="change4_8"><path d="M 256.449219 224.378906 L 256.449219 240.421875 L 192.328125 240.421875 L 192.328125 224.378906 L 160.28125 224.378906 L 160.28125 208.359375 L 144.261719 208.359375 L 144.261719 240.421875 L 176.308594 240.421875 L 176.308594 256.441406 L 96.179688 256.441406 L 96.179688 272.480469 L 80.140625 272.480469 L 80.140625 256.441406 L 64.121094 256.441406 L 64.121094 240.421875 L 48.078125 240.421875 L 48.078125 224.378906 L 32.058594 224.378906 L 32.058594 208.359375 L 16.039062 208.359375 L 16.039062 192.339844 L 48.078125 192.339844 L 48.078125 208.359375 L 80.140625 208.359375 L 80.140625 224.378906 L 112.199219 224.378906 L 112.199219 240.421875 L 128.21875 240.421875 L 128.21875 208.359375 L 112.199219 208.359375 L 112.199219 192.339844 L 128.21875 192.339844 L 128.21875 176.300781 L 80.140625 176.300781 L 80.140625 144.25 L 96.179688 144.25 L 96.179688 128.230469 L 112.199219 128.230469 L 112.199219 160.28125 L 160.28125 160.28125 L 160.28125 176.300781 L 192.328125 176.300781 L 192.328125 160.28125 L 240.410156 160.28125 L 240.410156 128.230469 L 272.46875 128.230469 L 272.46875 144.25 L 256.449219 144.25 L 256.449219 176.300781 L 208.351562 176.300781 L 208.351562 224.378906 L 256.449219 224.378906" fill="#27813b"/></g><g id="change5_2"><path d="M 80.140625 64.140625 L 80.128906 48.089844 L 96.179688 48.078125 L 96.167969 32.070312 L 112.199219 32.058594 L 112.210938 64.140625 L 80.140625 64.140625" fill="#4cbc38"/></g><g id="change5_3"><path d="M 80.140625 64.128906 L 80.140625 48.089844 L 96.179688 48.089844 L 96.179688 32.070312 L 112.199219 32.070312 L 112.199219 64.128906 L 80.140625 64.128906" fill="#4cbc38"/></g><g id="change5_4"><path d="M 176.308594 208.371094 L 176.300781 192.339844 L 192.328125 192.328125 L 192.339844 208.371094 L 176.308594 208.371094" fill="#4cbc38"/></g><g id="change5_5"><path d="M 192.328125 192.339844 L 192.328125 208.359375 L 176.308594 208.359375 L 176.308594 192.339844 L 192.328125 192.339844" fill="#4cbc38"/></g><g id="change5_6"><path d="M 288.488281 64.140625 L 288.480469 48.089844 L 304.53125 48.078125 L 304.539062 64.140625 L 288.488281 64.140625" fill="#4cbc38"/></g><g id="change5_7"><path d="M 304.53125 64.128906 L 288.488281 64.128906 L 288.488281 48.089844 L 304.53125 48.089844 L 304.53125 64.128906" fill="#4cbc38"/></g><g id="change5_8"><path d="M 320.550781 64.140625 L 320.539062 32.070312 L 336.570312 32.058594 L 336.578125 48.089844 L 352.601562 48.078125 L 352.609375 64.140625 L 320.550781 64.140625" fill="#4cbc38"/></g><g id="change5_9"><path d="M 320.550781 64.128906 L 320.550781 32.070312 L 336.570312 32.070312 L 336.570312 48.089844 L 352.601562 48.089844 L 352.601562 64.128906 L 320.550781 64.128906" fill="#4cbc38"/></g><g clip-path="url(#d)" fill="#4cbc38" id="change5_1"><path d="M 224.398438 80.148438 L 256.449219 80.140625 L 256.441406 64.128906 L 224.390625 64.140625 Z M 256.460938 96.171875 L 272.46875 96.160156 L 272.460938 80.148438 L 256.449219 80.160156 Z M 112.199219 240.429688 L 112.191406 224.378906 L 80.140625 224.390625 L 80.128906 208.359375 L 48.078125 208.371094 L 48.070312 192.339844 L 0.0117188 192.351562 L 0 176.300781 L 16.039062 176.289062 L 16.03125 128.230469 L 32.058594 128.21875 L 32.050781 96.171875 L 48.078125 96.160156 L 48.089844 112.199219 L 64.121094 112.191406 L 64.109375 96.171875 L 96.179688 96.160156 L 96.167969 80.148438 L 144.261719 80.140625 L 144.25 64.128906 L 160.28125 64.121094 L 160.269531 48.089844 L 192.328125 48.078125 L 192.339844 64.128906 L 224.390625 64.121094 L 224.378906 48.089844 L 208.351562 48.101562 L 208.339844 32.070312 L 240.410156 32.058594 L 240.417969 48.089844 L 272.46875 48.078125 L 272.480469 64.128906 L 288.488281 64.121094 L 288.5 96.171875 L 320.550781 96.160156 L 320.539062 80.148438 L 368.621094 80.140625 L 368.628906 96.171875 L 352.601562 96.179688 L 352.609375 112.199219 L 368.621094 112.191406 L 368.628906 128.230469 L 400.679688 128.21875 L 400.691406 160.28125 L 384.660156 160.289062 L 384.667969 208.359375 L 336.570312 208.371094 L 336.578125 224.378906 L 304.53125 224.390625 L 304.519531 208.359375 L 320.550781 208.351562 L 320.539062 192.339844 L 336.570312 192.328125 L 336.558594 176.300781 L 352.601562 176.289062 L 352.589844 160.28125 L 336.570312 160.289062 L 336.558594 144.25 L 320.550781 144.261719 L 320.558594 160.28125 L 304.53125 160.289062 L 304.539062 176.300781 L 288.488281 176.308594 L 288.5 192.339844 L 256.449219 192.351562 L 256.460938 224.378906 L 208.351562 224.390625 L 208.339844 176.300781 L 256.449219 176.289062 L 256.441406 144.25 L 272.46875 144.238281 L 272.460938 128.230469 L 240.410156 128.238281 L 240.417969 160.28125 L 192.328125 160.289062 L 192.339844 176.300781 L 160.28125 176.308594 L 160.269531 160.28125 L 112.199219 160.289062 L 112.191406 128.230469 L 96.179688 128.238281 L 96.191406 144.25 L 80.140625 144.261719 L 80.148438 176.300781 L 128.21875 176.289062 L 128.230469 192.339844 L 112.199219 192.351562 L 112.210938 208.359375 L 128.21875 208.351562 L 128.230469 240.429688 L 112.199219 240.429688" fill="inherit"/><path d="M 400.679688 128.230469 L 400.679688 160.28125 L 384.660156 160.28125 L 384.660156 208.359375 L 336.570312 208.359375 L 336.570312 224.378906 L 304.53125 224.378906 L 304.53125 208.359375 L 320.550781 208.359375 L 320.550781 192.339844 L 336.570312 192.339844 L 336.570312 176.300781 L 352.601562 176.300781 L 352.601562 160.28125 L 336.570312 160.28125 L 336.570312 144.25 L 320.550781 144.25 L 320.550781 160.28125 L 304.53125 160.28125 L 304.53125 176.300781 L 288.488281 176.300781 L 288.488281 192.339844 L 256.449219 192.339844 L 256.449219 224.378906 L 208.351562 224.378906 L 208.351562 176.300781 L 256.449219 176.300781 L 256.449219 144.25 L 272.46875 144.25 L 272.46875 128.230469 L 240.410156 128.230469 L 240.410156 160.28125 L 192.328125 160.28125 L 192.328125 176.300781 L 160.28125 176.300781 L 160.28125 160.28125 L 112.199219 160.28125 L 112.199219 128.230469 L 96.179688 128.230469 L 96.179688 144.25 L 80.140625 144.25 L 80.140625 176.300781 L 128.21875 176.300781 L 128.21875 192.339844 L 112.199219 192.339844 L 112.199219 208.359375 L 128.21875 208.359375 L 128.21875 240.421875 L 112.199219 240.421875 L 112.199219 224.378906 L 80.140625 224.378906 L 80.140625 208.359375 L 48.078125 208.359375 L 48.078125 192.339844 L 0.0117188 192.339844 L 0.0117188 176.300781 L 16.039062 176.300781 L 16.039062 128.230469 L 32.058594 128.230469 L 32.058594 96.171875 L 48.078125 96.171875 L 48.078125 112.199219 L 64.121094 112.199219 L 64.121094 96.171875 L 96.179688 96.171875 L 96.179688 80.148438 L 144.261719 80.148438 L 144.261719 64.128906 L 160.28125 64.128906 L 160.28125 48.089844 L 192.328125 48.089844 L 192.328125 64.128906 L 224.390625 64.128906 L 224.390625 80.148438 L 256.449219 80.148438 L 256.449219 96.171875 L 272.46875 96.171875 L 272.46875 80.148438 L 256.449219 80.148438 L 256.449219 64.128906 L 224.390625 64.128906 L 224.390625 48.089844 L 208.351562 48.089844 L 208.351562 32.070312 L 240.410156 32.070312 L 240.410156 48.089844 L 272.46875 48.089844 L 272.46875 64.128906 L 288.488281 64.128906 L 288.488281 96.171875 L 320.550781 96.171875 L 320.550781 80.148438 L 368.621094 80.148438 L 368.621094 96.171875 L 352.601562 96.171875 L 352.601562 112.199219 L 368.621094 112.199219 L 368.621094 128.230469 L 400.679688 128.230469" fill="inherit"/></g><g id="change5_10"><path d="M 224.390625 80.160156 L 224.378906 64.128906 L 256.449219 64.121094 L 256.460938 80.160156 L 224.390625 80.160156" fill="#4cbc38"/></g><g id="change5_11"><path d="M 256.449219 64.128906 L 256.449219 80.148438 L 224.390625 80.148438 L 224.390625 64.128906 L 256.449219 64.128906" fill="#4cbc38"/></g><g id="change5_12"><path d="M 256.449219 96.179688 L 256.441406 80.148438 L 272.46875 80.140625 L 272.480469 96.179688 L 256.449219 96.179688" fill="#4cbc38"/></g><g id="change5_13"><path d="M 272.46875 80.148438 L 272.46875 96.171875 L 256.449219 96.171875 L 256.449219 80.148438 L 272.46875 80.148438" fill="#4cbc38"/></g></g></svg>