<?xml version="1.0" encoding="UTF-8" standalone="no"?><svg xmlns="http://www.w3.org/2000/svg" xmlns:xlink="http://www.w3.org/1999/xlink" fill="#000000" height="251.4" preserveAspectRatio="xMidYMid meet" version="1" viewBox="82.0 85.0 261.1 251.4" width="261.1" zoomAndPan="magnify"><g><g id="change1_1"><path d="M154.76,166.57c-1.71-1.87-4.35-2.77-5.83-0.19c-2.13,3.7-1.91,8.65-1.6,12.75 c0.25,3.31,0.66,6.63,1.53,9.84c0.75,2.78,1.77,6.61,4.25,8.34c0.57,0.4,1.34,0.79,2.05,0.94c0.39,0.08,2.76,0.12,1.96-0.9" fill="#fbcb98"/></g><g id="change1_2"><path d="M270.25,166.57c1.71-1.87,4.35-2.77,5.83-0.19c2.13,3.7,1.91,8.65,1.6,12.75 c-0.25,3.31-0.66,6.63-1.53,9.84c-0.75,2.78-1.77,6.61-4.25,8.34c-0.57,0.4-1.34,0.79-2.05,0.94c-0.39,0.08-2.76,0.12-1.96-0.9" fill="#fbcb98"/></g><g id="change2_1"><path d="M341.14,336.38c0.68-0.76,1.36-1.52,2.02-2.29c-7.77-19.86-24.27-35.7-45.56-42.23l-34.15-12.61 C249.72,274.77,249,266.2,249,251.76V221.1h-72.8v30.69c0,14.43,0.62,22-13.08,26.51l-35.46,13.62 c-21.3,6.5-37.82,22.34-45.61,42.2c0.66,0.77,1.34,1.52,2.01,2.27H341.14z" fill="#ecc090"/></g><g id="change3_1"><path d="M341.15,336.38c0.67-0.76,1.35-1.52,2.02-2.29c-7.77-19.86-24.27-35.7-45.56-42.23l-28.04-10.35 c-28.35,28.82-91.44,30.95-112.45-0.92l-29.45,11.31c-21.3,6.5-37.82,22.34-45.61,42.2c0.66,0.77,1.33,1.52,2,2.27H341.15z" fill="#555555"/></g><g id="change1_3"><path d="M270.55,160.32c-0.15-41.1-25.36-64.26-57.89-64.26c-0.02,0,0,6.36,0,0c0-0.02,0.02,0,0,0 c-32.53,0-57.74,23.16-57.89,64.26c-0.07,18.74,0.58,31.08,2.48,44.68c5.93,42.28,44.84,54.13,55.35,54.13 c12.87,0,49.54-11.85,55.47-54.13C269.97,191.4,270.62,179.06,270.55,160.32z" fill="#fbcb98"/></g><g id="change4_1"><path d="M274.46,156.07c-0.05-2.04-0.15-4.03-0.28-5.95c-0.52-7.52-2.39-14.37-4.8-21.46 c-1.12-3.3-1.64-9.93-4.05-12.51c-8.13-8.68-12.32,6.41-14.66,11.33c-1.6,3.35,0.27,12.05,0.68,15.72 c0.63,5.55,1.93,10.77,4.26,15.85c4.55,9.9,12.28,16.51,11.54,28.45c1.23,0.61,2.77-0.37,3.26-1.65 C273.82,177.03,274.71,165.98,274.46,156.07z" fill="#000000"/></g><g id="change4_2"><path d="M160.8,175.58c1.61-1.64,3.62-3,5.26-4.65c5.64-5.69,3.56-12.82,7.37-19.08c2.04-3.35,6.48-5.6,10-3.87 c4.05,1.99,4.9,7.91,8.94,9.93c1.13,0.56,2.41,0.76,3.66,0.89c10.8,1.18,21.96-1.21,31.33-6.71c-1.38,2.05-1.33,4.95,0.1,6.95 c13.45-3.49,25.71-11.42,34.41-22.25c6.77-8.43,4.29-18.41-1.18-27.05c-1.79-2.82-3.87-5.55-6.66-7.39 c-3.4-2.25-7.55-3.01-11.57-3.72c-4.13-0.73-8.26-1.45-12.39-2.18c1.52-1.97,3.31-3.72,5.31-5.2 c-9.36-2.92-19.41,1.16-29.21,0.84c0.32-2.7,1.66-5.26,3.69-7.07c-6.62,0.11-13.21,1.24-19.5,3.28 c-9.26,2.99-17.9,7.93-25.15,14.42c-3.19,2.85-7.14,6.27-8.78,10.27c-1.76,4.3-2.86,9.5-3.8,14.08 c-4.34,21.34-0.92,43.22-0.33,64.73c0.03,0.92,0.11,1.96,0.83,2.53c0.8,0.63,2.05,0.32,2.75-0.42s0.98-1.77,1.19-2.77 c0.33-1.63,0.54-3.28,0.61-4.95c0.11-2.56-0.07-5.24,0.96-7.59C159.16,177.47,159.92,176.48,160.8,175.58z" fill="#000000"/></g></g></svg>