<?xml version="1.0" encoding="UTF-8"?><svg xmlns="http://www.w3.org/2000/svg" xmlns:xlink="http://www.w3.org/1999/xlink" clip-rule="evenodd" fill-rule="evenodd" height="146.7" image-rendering="optimizeQuality" preserveAspectRatio="xMidYMid meet" shape-rendering="geometricPrecision" text-rendering="geometricPrecision" version="1.0" viewBox="10.2 13.4 153.1 146.7" width="153.1" zoomAndPan="magnify"><defs><linearGradient gradientUnits="userSpaceOnUse" id="a" x1=".997" x2="172.402" xlink:actuate="onLoad" xlink:show="other" xlink:type="simple" xmlns:xlink="http://www.w3.org/1999/xlink" y1="55.298" y2="118.099"><stop offset="0" stop-color="#f4505d"/><stop offset=".502" stop-color="#be73ed"/><stop offset="1" stop-color="#15c0e9"/></linearGradient></defs><g><path d="M57.5401 147.434l58.3137 0c0.0103,-0.0862 0.0217,-0.172 0.0339,-0.2577l0.0007 -0.0049c0.0118,-0.0826 0.0247,-0.1649 0.0383,-0.247l0.003 -0.0184c0.0136,-0.0808 0.028,-0.1613 0.0433,-0.2415l0.0028 -0.0147c0.0157,-0.0818 0.0322,-0.1634 0.0497,-0.2446l0.0014 -0.0062c0.0177,-0.082 0.0362,-0.1637 0.0557,-0.2451l0.0029 -0.0121c0.1394,-0.5793 0.3236,-1.1412 0.5489,-1.682l0.0068 -0.0165c0.026,-0.0622 0.0528,-0.1239 0.0799,-0.1855l0.0267 -0.061c0.0245,-0.0548 0.0497,-0.1093 0.0751,-0.1637l0.0354 -0.0757c0.0249,-0.0524 0.0503,-0.1045 0.0761,-0.1565l0.0388 -0.0779c0.0255,-0.0505 0.0514,-0.1008 0.0776,-0.1509l0.0446 -0.0844c0.025,-0.0468 0.0503,-0.0932 0.0759,-0.1396l0.0525 -0.0938c0.0248,-0.0439 0.0497,-0.0877 0.0751,-0.1313l0.0557 -0.0942c0.0261,-0.0438 0.0522,-0.0874 0.0789,-0.1308l0.0566 -0.0906c0.0272,-0.0433 0.0544,-0.0868 0.0821,-0.1297 0.0188,-0.0291 0.0382,-0.0578 0.0572,-0.0867 0.0288,-0.0437 0.0576,-0.0875 0.087,-0.1308 0.0181,-0.0267 0.0368,-0.0529 0.0551,-0.0794 0.031,-0.0447 0.0617,-0.0896 0.0933,-0.1338l0.0016 -0.0022c0.0486,-0.0681 0.0978,-0.1356 0.1479,-0.2025l0.0003 -0.0003 0.0265 -0.0347c0.0441,-0.0585 0.0886,-0.1167 0.1339,-0.1743l0.0441 -0.055c0.0389,-0.049 0.0779,-0.0978 0.1176,-0.1461 0.0216,-0.0263 0.0437,-0.0521 0.0656,-0.0782 0.0348,-0.0416 0.0696,-0.0832 0.1051,-0.1242 0.0209,-0.0243 0.0423,-0.0482 0.0634,-0.0723 0.0373,-0.0426 0.0748,-0.085 0.1128,-0.127l0.0602 -0.0656c0.0393,-0.0428 0.0789,-0.0854 0.1188,-0.1276l0.0657 -0.0686c0.0375,-0.0389 0.0751,-0.0777 0.1132,-0.116l0.0746 -0.0744c0.0381,-0.0377 0.0765,-0.0752 0.1151,-0.1124l0.0706 -0.0675c0.0413,-0.0391 0.083,-0.0777 0.1248,-0.1162l0.0675 -0.0617c0.0434,-0.0392 0.0873,-0.078 0.1313,-0.1165l0.0648 -0.0567c0.0499,-0.043 0.1003,-0.0853 0.151,-0.1275l0.0465 -0.0389c0.0566,-0.0466 0.1138,-0.0927 0.1714,-0.1382l0.0345 -0.0276c0.2103,-0.1651 0.4266,-0.3229 0.6485,-0.473l0.0192 -0.0127c0.0663,-0.0446 0.1329,-0.0887 0.2002,-0.1319l0.0449 -0.0283c0.0604,-0.0384 0.1211,-0.0765 0.1822,-0.1138l0.0505 -0.0303c0.0566,-0.0342 0.1135,-0.0679 0.1708,-0.1011l0.0739 -0.0422c0.0522,-0.0297 0.1046,-0.0591 0.1574,-0.0881l0.0762 -0.0412c0.0529,-0.0285 0.1061,-0.0567 0.1595,-0.0843l0.0761 -0.039c0.0532,-0.0271 0.1068,-0.0536 0.1605,-0.0798l0.081 -0.0392c0.0542,-0.0259 0.1086,-0.0513 0.1633,-0.0764l0.0757 -0.0346c0.0577,-0.026 0.1159,-0.0513 0.1742,-0.0763l0.0707 -0.0304c0.0619,-0.0261 0.1241,-0.0513 0.1865,-0.0763l0.06 -0.0242c0.0679,-0.0267 0.1363,-0.0526 0.2048,-0.078l0.0467 -0.0176c0.0821,-0.0301 0.1646,-0.0591 0.2475,-0.0873l0.0063 -0.0022c0.171,-0.058 0.344,-0.1118 0.5186,-0.1617l0.0627 -0.0172c0.0653,-0.0182 0.1306,-0.0362 0.1964,-0.0533 0.0287,-0.0075 0.0576,-0.0144 0.0864,-0.0216 0.0576,-0.0145 0.1153,-0.0288 0.1732,-0.0424l0.1018 -0.023c0.0539,-0.0121 0.108,-0.024 0.1622,-0.0354l0.1065 -0.0215c0.0532,-0.0106 0.1064,-0.0209 0.1598,-0.0307l0.1141 -0.0202c0.0502,-0.0087 0.1006,-0.0171 0.151,-0.0251l0.1202 -0.0185c0.0515,-0.0076 0.1032,-0.0148 0.1549,-0.0217l0.1142 -0.0148c0.0541,-0.0067 0.1085,-0.0128 0.1629,-0.0187l0.1112 -0.0118c0.0543,-0.0054 0.1089,-0.01 0.1634,-0.0146 0.0382,-0.0032 0.0763,-0.0066 0.1146,-0.0094 0.0568,-0.0042 0.114,-0.0075 0.171,-0.0109 0.0347,-0.0021 0.0693,-0.0044 0.1041,-0.0061 0.0627,-0.0032 0.1258,-0.0051 0.1888,-0.0072l0.0923 -0.0032c0.0928,-0.0025 0.186,-0.0036 0.2795,-0.0036 0.7346,-0.0001 1.4649,0.07 2.1782,0.2098l18.0191 -55.4571c-3.6072,-1.6623 -6.066,-5.1019 -6.4698,-9.0667l-0.0017 -0.0176c-0.0085,-0.0851 -0.0161,-0.1704 -0.0228,-0.2559l-0.0022 -0.0263c-0.0068,-0.0895 -0.0124,-0.1791 -0.0171,-0.2691l-0.0016 -0.0358c-0.0036,-0.0745 -0.0063,-0.1493 -0.0085,-0.2241l-0.0019 -0.0684c-0.0021,-0.0867 -0.0033,-0.1734 -0.0033,-0.2605 0,-0.0952 0.0012,-0.1903 0.0036,-0.2852l0.0004 -0.012c0.0024,-0.0935 0.006,-0.1867 0.0106,-0.2799l0.0002 -0.0031c0.0877,-1.7364 0.5676,-3.4051 1.4081,-4.9095l-47.1767 -34.2745c-0.404,0.4342 -0.8401,0.8339 -1.303,1.1965l-0.0137 0.0106c-0.0499,0.0389 -0.1001,0.0775 -0.1506,0.1156 -1.6954,1.285 -3.7641,2.1012 -6.0118,2.2552l-0.13 0.0083 -0.1183 0.0062c-0.0745,0.0036 -0.149,0.0064 -0.2237,0.0085l-0.0327 0.0008c-0.0905,0.0022 -0.1812,0.0035 -0.2721,0.0035 -0.2728,0 -0.5444,-0.0103 -0.8146,-0.0301 -0.0443,-0.0032 -0.0885,-0.0069 -0.1327,-0.0106l-0.1021 -0.0091c-2.0638,-0.1917 -3.9674,-0.9419 -5.5585,-2.0975l-0.0723 -0.0527 -0.0679 -0.05c-0.5408,-0.4036 -1.0471,-0.8566 -1.5111,-1.3551l-47.1771 34.2743c0.9377,1.6714 1.4267,3.5457 1.4267,5.4898 0,0.087 -0.0014,0.1739 -0.0033,0.2605l-0.0019 0.0697c-0.002,0.0703 -0.0046,0.1403 -0.0079,0.2103l-0.0025 0.0534c-0.0047,0.0901 -0.0104,0.1799 -0.0172,0.2695l-0.0006 0.0079c-0.0067,0.0882 -0.0146,0.1762 -0.0234,0.264l-0.0028 0.027c-0.4054,3.9626 -2.8661,7.401 -6.472,9.0621l18.0187 55.4568c0.7174,-0.1396 1.4437,-0.2095 2.1813,-0.2095 0.0934,0 0.1865,0.0013 0.2794,0.0036l0.0924 0.0032c0.0629,0.0021 0.1259,0.0041 0.1886,0.0072 0.035,0.0017 0.0698,0.0042 0.1047,0.0062 0.0567,0.0033 0.1135,0.0067 0.1699,0.0108 0.0406,0.003 0.0808,0.0066 0.1213,0.01 0.0505,0.0043 0.101,0.0085 0.1513,0.0134 0.0436,0.0043 0.0871,0.0091 0.1306,0.0139 0.0476,0.0052 0.0951,0.0104 0.1426,0.0163l0.1241 0.0161c0.0511,0.0068 0.1021,0.0139 0.153,0.0215l0.1186 0.0183c0.0497,0.0079 0.0993,0.0161 0.1487,0.0247l0.1183 0.021c0.0517,0.0095 0.1032,0.0195 0.1546,0.0297l0.1117 0.0226c0.0519,0.0109 0.1036,0.0224 0.1553,0.0339 0.0363,0.0081 0.0726,0.0161 0.1087,0.0246 0.0554,0.013 0.1105,0.0267 0.1656,0.0405 0.031,0.0078 0.0621,0.0151 0.0929,0.0232 0.0649,0.0169 0.1295,0.0346 0.1939,0.0526l0.064 0.0176c0.0782,0.0223 0.1559,0.0457 0.2334,0.0696l0.0247 0.0074c0.0867,0.027 0.173,0.0551 0.2589,0.0842l0.0259 0.0091c0.0762,0.026 0.1521,0.0527 0.2276,0.0803l0.059 0.0223c0.0643,0.0239 0.1284,0.0481 0.1922,0.0732l0.0672 0.0271c0.0604,0.0242 0.1206,0.0487 0.1805,0.0739l0.0754 0.0324c0.0554,0.0238 0.1107,0.0479 0.1657,0.0726l0.0846 0.0386c0.0533,0.0245 0.1065,0.0492 0.1594,0.0745l0.0804 0.0391c0.0535,0.0261 0.1067,0.0526 0.1597,0.0795l0.0767 0.0392c0.0529,0.0274 0.1056,0.0553 0.158,0.0835l0.0794 0.043c0.0511,0.028 0.1018,0.0565 0.1524,0.0853l0.0789 0.0451c0.0541,0.0313 0.1077,0.0633 0.1612,0.0955l0.0614 0.0368c0.059,0.036 0.1174,0.0727 0.1757,0.1098l0.0481 0.0304c0.072,0.0463 0.1436,0.0933 0.2144,0.1412l0.0027 0.0018c0.2245,0.1518 0.4432,0.3115 0.6558,0.4786l0.0034 0.0027c0.0672,0.0528 0.1337,0.1066 0.1996,0.1609l0.0368 0.0308c0.054,0.0449 0.1077,0.0902 0.1609,0.1361l0.0527 0.046c0.0502,0.0439 0.1001,0.0881 0.1495,0.1328l0.0449 0.0411c0.0495,0.0453 0.0985,0.0908 0.1472,0.137l0.0497 0.0475c0.0472,0.0453 0.0941,0.091 0.1405,0.1371l0.0495 0.0495c0.046,0.0463 0.0915,0.0931 0.1368,0.1401l0.0481 0.0503c0.045,0.0474 0.0894,0.0953 0.1336,0.1434l0.0465 0.0508c0.0468,0.0517 0.093,0.1039 0.1388,0.1564l0.0336 0.0383c0.0552,0.0638 0.1097,0.1283 0.1634,0.1933l0.0039 0.0046c0.2283,0.2766 0.4436,0.5643 0.6451,0.862l0.0177 0.0266c0.0422,0.0628 0.0839,0.126 0.1249,0.1896l0.0372 0.0587c0.0348,0.0547 0.0693,0.1097 0.1031,0.1651l0.0402 0.0667c0.0315,0.0524 0.0627,0.105 0.0934,0.1579l0.0449 0.0785c0.028,0.0492 0.0558,0.0987 0.0831,0.1484l0.0493 0.0907c0.0242,0.045 0.048,0.0902 0.0716,0.1356l0.054 0.1051c0.0218,0.0431 0.0433,0.0864 0.0646,0.1298l0.0511 0.1051c0.0221,0.0463 0.0436,0.0929 0.0651,0.1395l0.046 0.1002c0.0201,0.0447 0.0395,0.0898 0.059,0.1347 0.0163,0.0377 0.0328,0.0752 0.0488,0.1131 0.0164,0.039 0.0321,0.0784 0.0481,0.1176 0.0178,0.0437 0.0358,0.0875 0.0531,0.1314 0.0104,0.0264 0.0201,0.053 0.0303,0.0795 0.1102,0.2873 0.2092,0.5801 0.296,0.8781l0.0068 0.0229c0.0213,0.0736 0.0415,0.1478 0.0613,0.222l0.0081 0.0295c0.0191,0.0724 0.0372,0.1452 0.0549,0.2182l0.009 0.0369c0.0174,0.0729 0.0339,0.1462 0.0499,0.2196l0.0078 0.0358c0.0159,0.0744 0.0311,0.1489 0.0455,0.2238l0.006 0.0316c0.0148,0.0777 0.0286,0.1558 0.0418,0.234l0.0031 0.0186c0.0137,0.082 0.0264,0.1644 0.0383,0.247l0.0007 0.0048c0.0122,0.0857 0.0237,0.1715 0.0339,0.2578zm28.0363 -23.6167l2.2425 0 0 -11.3851c0,-0.4406 0.2189,-0.8565 0.5826,-1.1048 0.8257,-0.5666 1.3185,-1.5 1.3185,-2.4965 0.0012,-1.6647 -1.3571,-3.0213 -3.0213,-3.0213 -1.6666,-0.0003 -3.0212,1.3569 -3.0212,3.0213 0.0014,0.9964 0.4895,1.9301 1.3149,2.4965 0.367,0.248 0.584,0.6644 0.584,1.105l0 11.3849zm3.5846 2.6856l-4.9266 0c-0.7412,0 -1.3437,-0.6013 -1.3437,-1.3426l0.0014 -12.0778c-1.2007,-1.0735 -1.9001,-2.6152 -1.9001,-4.2516 0.0008,-3.1439 2.5597,-5.7066 5.7067,-5.7066 3.1436,-0.0001 5.703,2.563 5.703,5.7066 0.0008,1.636 -0.6958,3.1784 -1.8987,4.2519l0 12.0775c0,0.7411 -0.6014,1.3427 -1.342,1.3426zm8.1151 -42.5581l0.0011 -14.5251c0,-3.2591 -1.1304,-5.9757 -3.2706,-7.8639 -1.9157,-1.6927 -4.5142,-2.6225 -7.3079,-2.6225 -5.0969,-0.0002 -10.5811,3.2834 -10.5811,10.4865l0.0005 14.5251 21.158 -0.0001zm-22.4938 2.6855l-0.0074 0.0001 -0.0074 -0.0001 -4.8662 0c-0.3137,0 -0.6205,0.0303 -0.9178,0.0873 -0.1119,0.0426 -0.2308,0.0707 -0.3546,0.082 -2.0656,0.5609 -3.5886,2.453 -3.5886,4.6948l0.0004 33.942c0,2.6821 2.1779,4.864 4.86,4.864l33.5931 -0.0002c2.6814,0 4.8632,-2.1817 4.8632,-4.8637l0.0008 -33.9424c0,-2.243 -1.5267,-4.1356 -3.5952,-4.6953 -0.1208,-0.0115 -0.2368,-0.039 -0.3459,-0.0801 -0.2991,-0.0578 -0.6078,-0.0883 -0.9236,-0.0883l-28.7108 -0.0001zm-1.35 -2.6853l0 -14.5253c0,-8.6471 6.6716,-13.1718 13.2664,-13.1718 6.5927,-0.0003 13.263,4.5247 13.263,13.1719l0.0013 14.5249 3.5308 0 0.0552 0.0007 0 -15.3753c0,-8.5776 -6.976,-15.5531 -15.5529,-15.5531l-2.5973 -0.0002c-8.5741,0 -15.5506,6.976 -15.5506,15.5533l0.0011 15.3756 0.0514 -0.0007 3.5316 0zm-6.2694 0.5141l0.0006 -15.889c0,-10.0566 8.178,-18.2385 18.2345,-18.2385l2.5985 -0.0003c10.0564,0 18.2382,8.1824 18.2382,18.2388l0.0004 15.8901c2.8103,1.0992 4.8074,3.8369 4.8074,7.0342l0.0012 33.942c0,4.1612 -3.3893,7.5495 -7.5499,7.5494l-33.5925 0c-4.1604,0 -7.5465,-3.3882 -7.5465,-7.5493l0 -33.9424c0,-3.1984 1.9967,-5.9368 4.8081,-7.035zm-45.7397 -20.9943c-4.7315,0 -8.5777,3.8465 -8.5777,8.5775 0.0008,4.7308 3.8462,8.5809 8.5773,8.5809 4.5086,-0.0001 8.2155,-3.4951 8.5553,-7.9173l0.0013 -0.0187c0.0044,-0.0592 0.008,-0.1185 0.0113,-0.178l0.0028 -0.055c0.0025,-0.0518 0.0045,-0.1037 0.006,-0.1557l0.0015 -0.052c0.0017,-0.0679 0.0026,-0.1359 0.0026,-0.2042 0,-0.0715 -0.001,-0.1429 -0.0027,-0.214l-0.0003 -0.0123c-0.1205,-4.6267 -3.9223,-8.351 -8.5774,-8.3512zm0 19.8435c-6.2104,0 -11.2632,-5.0524 -11.2632,-11.266 0.0002,-6.2101 5.0528,-11.2627 11.2628,-11.2627 3.2587,-0.0002 6.1972,1.3897 8.2558,3.6069l47.1836 -34.2816c-0.9101,-1.6248 -1.4299,-3.4964 -1.4299,-5.4879 0.0016,-6.2102 5.0526,-11.2628 11.2664,-11.2628 6.2103,-0.0003 11.2628,5.0526 11.2628,11.2628 0,1.9915 -0.5198,3.8634 -1.4297,5.4883l47.1861 34.2822c2.0582,-2.2176 4.9961,-3.6079 8.2531,-3.6079 6.2147,-0.0003 11.2662,5.0527 11.2662,11.2627 0.0011,6.2134 -5.0527,11.2663 -11.2652,11.266 -0.7461,0 -1.4754,-0.0736 -2.1813,-0.2127l-18.0199 55.4616c3.8534,1.791 6.5318,5.6982 6.5318,10.2196 0.0004,6.2101 -5.0527,11.2664 -11.2626,11.2661 -5.758,0 -10.5202,-4.3436 -11.1862,-9.9237l-58.3135 0c-0.6649,5.5801 -5.4268,9.924 -11.1818,9.9237 -6.2137,0 -11.2673,-5.056 -11.2673,-11.2661 0.0009,-4.521 2.6785,-8.4277 6.5322,-10.2189l-18.0195 -55.462c-0.7057,0.1389 -1.4347,0.2124 -2.1807,0.2124zm24.9258 56.8912c-0.068,0.0001 -0.1359,0.0008 -0.2035,0.0025l-0.0081 0.0002 -0.003 0.0001c-4.6284,0.1193 -8.3577,3.9185 -8.3577,8.5745 0,4.7309 3.8499,8.5809 8.5808,8.5809 4.7278,-0.0004 8.5775,-3.8499 8.5775,-8.5809 0,-0.0739 -0.0009,-0.1476 -0.0028,-0.2211 -0.0019,-0.0735 -0.0046,-0.1467 -0.0083,-0.2198 -0.0037,-0.073 -0.0083,-0.1458 -0.0139,-0.2183 -0.0055,-0.0725 -0.012,-0.1448 -0.0193,-0.2168 -0.0073,-0.072 -0.0155,-0.1438 -0.0246,-0.2153 -0.0091,-0.0715 -0.0191,-0.1427 -0.03,-0.2136 -0.0109,-0.0709 -0.0226,-0.1416 -0.0352,-0.2119 -0.0126,-0.0703 -0.026,-0.1405 -0.0403,-0.2102 -0.0143,-0.0697 -0.0295,-0.1392 -0.0455,-0.2083 -0.016,-0.0691 -0.0328,-0.1379 -0.0505,-0.2064 -0.0177,-0.0685 -0.0361,-0.1366 -0.0554,-0.2044 -0.0193,-0.0678 -0.0395,-0.1353 -0.0604,-0.2024 -0.0209,-0.0671 -0.0426,-0.1338 -0.0651,-0.2002 -0.0225,-0.0664 -0.0459,-0.1324 -0.07,-0.1981 -0.0241,-0.0657 -0.049,-0.131 -0.0746,-0.1959 -0.0256,-0.0649 -0.0521,-0.1294 -0.0792,-0.1935 -0.0272,-0.0641 -0.0551,-0.1278 -0.0838,-0.1912 -0.0287,-0.0633 -0.058,-0.1262 -0.0882,-0.1887l-0.0001 0c-0.0302,-0.0625 -0.061,-0.1246 -0.0926,-0.1862 -0.0316,-0.0616 -0.0641,-0.1228 -0.0971,-0.1836 -0.0331,-0.0608 -0.0668,-0.121 -0.1013,-0.1809 -0.0345,-0.0599 -0.0697,-0.1194 -0.1055,-0.1783 -0.0359,-0.0589 -0.0723,-0.1174 -0.1096,-0.1754l-0.0001 0c-0.0372,-0.058 -0.0751,-0.1155 -0.1137,-0.1726 -0.0386,-0.057 -0.0778,-0.1137 -0.1177,-0.1697l-0.0001 0c-0.0399,-0.056 -0.0804,-0.1116 -0.1216,-0.1666l-0.0001 0c-0.0412,-0.055 -0.0831,-0.1097 -0.1255,-0.1637l-0.0001 0c-0.1275,-0.1621 -0.2605,-0.3194 -0.3991,-0.4718l-0.0001 0c-0.0462,-0.0508 -0.093,-0.101 -0.1403,-0.1507l-0.0001 0c-0.0474,-0.0497 -0.0952,-0.0988 -0.1438,-0.1473l-0.0001 0c-0.0485,-0.0485 -0.0976,-0.0965 -0.1472,-0.1438l-0.0001 0c-0.1491,-0.1421 -0.3031,-0.279 -0.4621,-0.4101l-0.0001 0c-1.2715,-1.0494 -2.8491,-1.7401 -4.5761,-1.9162l-0.0008 0c-0.0717,-0.0073 -0.1436,-0.0138 -0.2158,-0.0193l-0.0009 0c-0.2174,-0.0165 -0.4371,-0.025 -0.6587,-0.025l-0.0085 0zm72.1101 8.5773c0.0004,4.7309 3.8498,8.5809 8.5809,8.5809 4.7315,-0.0004 8.5771,-3.8499 8.5771,-8.5809 0,-4.5832 -3.6094,-8.3357 -8.1357,-8.5662l-0.0011 0c-0.0692,-0.0035 -0.1385,-0.0062 -0.208,-0.008l-0.0217 -0.0005c-0.0668,-0.0016 -0.1338,-0.0025 -0.2009,-0.0026l-0.0097 0c-0.0739,0 -0.1476,0.0008 -0.2211,0.0027l0 0.0001c-0.0735,0.0019 -0.1467,0.0046 -0.2197,0.0083l0 0.0001c-0.073,0.0037 -0.1457,0.0081 -0.2182,0.0137l0 0.0001c-0.0725,0.0055 -0.1448,0.012 -0.2168,0.0193 -0.072,0.0073 -0.1438,0.0154 -0.2153,0.0246l0 0.0001c-0.0715,0.0091 -0.1427,0.0191 -0.2136,0.0299l0 0.0001c-0.0709,0.0109 -0.1416,0.0225 -0.2119,0.0351 -0.0703,0.0126 -0.1404,0.026 -0.2101,0.0403l0 0.0001c-0.0697,0.0143 -0.1392,0.0294 -0.2083,0.0454 -0.0691,0.016 -0.1379,0.0327 -0.2064,0.0504l0 0.0001c-0.0685,0.0176 -0.1367,0.036 -0.2045,0.0553l0 0.0001c-0.0678,0.0193 -0.1353,0.0394 -0.2024,0.0603 -0.0671,0.0209 -0.1339,0.0426 -0.2003,0.0651 -0.0664,0.0225 -0.1325,0.0458 -0.1981,0.0699 -0.0657,0.0241 -0.131,0.0489 -0.1959,0.0745l0 0.0001c-0.0649,0.0256 -0.1294,0.0519 -0.1936,0.0791l0 0.0001c-0.0641,0.0272 -0.1279,0.0551 -0.1912,0.0837 -0.0633,0.0287 -0.1263,0.0581 -0.1888,0.0882 -0.0625,0.0301 -0.1245,0.061 -0.1862,0.0926 -0.0617,0.0316 -0.1229,0.0639 -0.1837,0.097 -0.0608,0.033 -0.1211,0.0668 -0.181,0.1012l0 0.0001c-0.0599,0.0345 -0.1193,0.0695 -0.1783,0.1054 -0.059,0.0358 -0.1175,0.0724 -0.1755,0.1096l0 0.0001c-0.058,0.0372 -0.1156,0.075 -0.1727,0.1136 -0.0571,0.0386 -0.1137,0.0778 -0.1698,0.1177 -0.0561,0.0399 -0.1116,0.0804 -0.1667,0.1216l0 0.0001c-0.0551,0.0412 -0.1096,0.083 -0.1637,0.1254l0 0.0001c-0.0541,0.0425 -0.1076,0.0856 -0.1606,0.1293 -0.053,0.0437 -0.1055,0.0881 -0.1574,0.133 -0.0519,0.045 -0.1034,0.0905 -0.1542,0.1367 -0.0508,0.0462 -0.1011,0.0929 -0.1508,0.1403 -0.0497,0.0474 -0.0989,0.0954 -0.1474,0.1439 -0.0486,0.0485 -0.0965,0.0976 -0.1439,0.1473 -0.0474,0.0497 -0.0942,0.0999 -0.1404,0.1507 -0.0462,0.0508 -0.0918,0.1021 -0.1368,0.154 -0.045,0.0519 -0.0894,0.1043 -0.1332,0.1573 -0.0438,0.053 -0.0869,0.1065 -0.1294,0.1605 -0.0425,0.054 -0.0844,0.1086 -0.1256,0.1637 -0.0412,0.055 -0.0818,0.1106 -0.1217,0.1666 -0.0399,0.0561 -0.0792,0.1127 -0.1178,0.1697 -0.0386,0.057 -0.0765,0.1146 -0.1138,0.1726 -0.0373,0.058 -0.0738,0.1165 -0.1097,0.1754 -0.0359,0.0589 -0.071,0.1184 -0.1055,0.1783 -0.0345,0.0599 -0.0684,0.1202 -0.1014,0.1809 -0.0331,0.0608 -0.0653,0.122 -0.097,0.1836 -0.0316,0.0616 -0.0626,0.1237 -0.0928,0.1862 -0.0302,0.0625 -0.0596,0.1254 -0.0883,0.1887 -0.0287,0.0633 -0.0566,0.1271 -0.0838,0.1912 -0.0272,0.0641 -0.0535,0.1286 -0.0792,0.1935 -0.0257,0.0649 -0.0506,0.1303 -0.0747,0.1959 -0.0241,0.0656 -0.0473,0.1317 -0.0699,0.1981 -0.0225,0.0664 -0.0443,0.1331 -0.0652,0.2002 -0.0209,0.0671 -0.0411,0.1347 -0.0604,0.2024 -0.0193,0.0678 -0.0378,0.1359 -0.0555,0.2044 -0.0177,0.0685 -0.0345,0.1373 -0.0505,0.2064 -0.016,0.0691 -0.0312,0.1385 -0.0455,0.2083 -0.0143,0.0697 -0.0278,0.1399 -0.0404,0.2102 -0.0126,0.0703 -0.0244,0.141 -0.0352,0.2119 -0.0109,0.0709 -0.0209,0.1421 -0.03,0.2136 -0.0091,0.0715 -0.0174,0.1432 -0.0247,0.2152 -0.0073,0.072 -0.0138,0.1443 -0.0193,0.2168 -0.0056,0.0725 -0.0102,0.1454 -0.0139,0.2184 -0.0037,0.073 -0.0065,0.1462 -0.0084,0.2197 -0.0019,0.0735 -0.0028,0.1472 -0.0028,0.2211zm33.5129 -85.312c-4.6558,0 -8.4549,3.7244 -8.5753,8.3511l-0.0003 0.0126c-0.0017,0.071 -0.0027,0.1423 -0.0027,0.2138 0,0.0681 0.0011,0.1359 0.0027,0.2036l0.0015 0.0527c0.0015,0.0521 0.0036,0.104 0.006,0.1559l0.0027 0.0543c0.003,0.0557 0.0067,0.1113 0.0107,0.1668l0.0024 0.035c0.2638,3.4007 2.5168,6.2529 5.5944,7.3871l0.0665 0.0237 0.0934 0.033c0.0432,0.0149 0.0867,0.0294 0.1303,0.0437 0.8397,0.2756 1.7359,0.4251 2.6667,0.4251 4.7325,-0.0001 8.5808,-3.8499 8.5808,-8.5809 0.0004,-4.731 -3.8497,-8.5773 -8.5798,-8.5775zm-65.2719 -47.4253c-4.7316,0 -8.5821,3.85 -8.5821,8.5775 0,2.7341 1.2857,5.1741 3.2844,6.7466l0.0037 0.003c0.0454,0.0357 0.0913,0.0706 0.1374,0.1053l0.0767 0.0569 0.024 0.0175c1.3015,0.9473 2.8553,1.5218 4.4808,1.6319l0.0856 0.0055 0.0833 0.0044c0.0544,0.0026 0.109,0.0046 0.1637,0.0062l0.0509 0.0012c0.0632,0.0015 0.1266,0.0024 0.1902,0.0024 0.0636,0 0.127,-0.001 0.1903,-0.0024l0.0505 -0.0012c0.0551,-0.0015 0.1099,-0.0038 0.1647,-0.0063l0.0804 -0.0042 0.0943 -0.006c0.0599,-0.0041 0.1198,-0.0086 0.1794,-0.014l0.0086 -0.0007c1.4149,-0.1285 2.7693,-0.609 3.9426,-1.3796l0.059 -0.0388 0.0451 -0.0306c2.269,-1.5456 3.7624,-4.1502 3.7624,-7.0971 0.0011,-4.7275 -3.8498,-8.5774 -8.5759,-8.5775z" fill="url(#a)"/></g><path d="M0 0H173.397V173.397H0z" fill="none"/></svg>