<?xml version="1.0" encoding="utf-8"?><!DOCTYPE svg PUBLIC "-//W3C//DTD SVG 1.1//EN" "http://www.w3.org/Graphics/SVG/1.1/DTD/svg11.dtd">
<svg version="1.1" id="Layer_1" xmlns="http://www.w3.org/2000/svg" xmlns:xlink="http://www.w3.org/1999/xlink" x="0px" y="0px" viewBox="0 0 157.6 142.1" enable-background="new 0 0 157.6 142.1" xml:space="preserve">
<g id="change1_1"><polygon id="XMLID_3_" fill="#ED1C24" points="143.3,28.6 143.3,14.3 129,14.3 129,0 100.4,0 100.4,14.3 86.1,14.3 86.1,28.6 
	85.8,28.6 71.8,28.6 71.5,28.6 71.5,14.3 57.2,14.3 57.2,0 28.6,0 28.6,14.3 14.3,14.3 14.3,28.6 0,28.6 0,42 0,57.2 0,70.6 
	14.3,70.6 14.3,84.9 28.6,84.9 28.6,99.2 42.9,99.2 42.9,113.5 57.2,113.5 57.2,127.8 71.5,127.8 71.5,142.1 71.8,142.1 85.8,142.1 
	86.1,142.1 86.1,127.8 100.4,127.8 100.4,113.5 114.7,113.5 114.7,99.2 129,99.2 129,84.9 143.3,84.9 143.3,70.6 157.6,70.6 
	157.6,57.2 157.6,42 157.6,28.6 "></polygon></g>
</svg>