<?xml version="1.0" encoding="UTF-8"?><svg xmlns="http://www.w3.org/2000/svg" xmlns:xlink="http://www.w3.org/1999/xlink" height="414.7" preserveAspectRatio="xMidYMid meet" version="1.0" viewBox="0.0 0.0 430.4 414.7" width="430.4" zoomAndPan="magnify"><linearGradient gradientUnits="userSpaceOnUse" id="a" x1="-31.099" x2="388.476" xlink:actuate="onLoad" xlink:show="other" xlink:type="simple" xmlns:xlink="http://www.w3.org/1999/xlink" y1="207.365" y2="207.365"><stop offset="0" stop-color="#f86abc"/><stop offset="1" stop-color="#2f7af4"/></linearGradient><path d="M326.9,259.7c43,0,80.7-9.1,103.5-24.4v38c-17.7,17.3-57.7,28.3-103.5,28.3c-45.8,0-85.8-11-103.5-28.3v-38 C246.2,250.6,283.8,259.7,326.9,259.7z M223.4,179.4v38c17.7,17.3,57.7,28.3,103.5,28.3c45.8,0,85.8-11,103.5-28.3v-38 c-22.8,15.3-60.4,24.4-103.5,24.4C283.8,203.9,246.2,194.7,223.4,179.4z M326.9,88.6c-4.8,0-9.4-0.1-14-0.4 c-37.1-1.8-69.2-10.5-89.4-24.1v41.6C241.1,123,281,134,326.9,134c45.8,0,85.8-11,103.5-28.3V64.1c-20.3,13.6-52.3,22.3-89.4,24.1 C336.3,88.5,331.6,88.6,326.9,88.6z M223.4,291.2v38c17.7,17.3,57.7,28.3,103.5,28.3c45.8,0,85.8-11,103.5-28.3v-38 c-22.8,15.3-60.4,24.4-103.5,24.4C283.8,315.6,246.2,306.5,223.4,291.2z M223.4,123.5v38c17.7,17.3,57.7,28.3,103.5,28.3 c45.8,0,85.8-11,103.5-28.3v-38c-22.8,15.3-60.4,24.4-103.5,24.4C283.8,148,246.2,138.9,223.4,123.5z M223.4,347v25.5 c0,23.3,46.3,42.2,103.5,42.2c57.2,0,103.5-18.9,103.5-42.2V347c-22.8,15.3-60.4,24.4-103.5,24.4C283.8,371.5,246.2,362.4,223.4,347 z M326.9,73.8c57.1,0,103.5-16.5,103.5-36.9C430.3,16.5,384,0,326.9,0c-57.1,0-103.5,16.5-103.5,36.9 C223.4,57.3,269.7,73.8,326.9,73.8z M0,235.3v38c17.7,17.3,57.7,28.3,103.5,28.3c45.8,0,85.8-11,103.5-28.3v-38 c-22.8,15.3-60.4,24.4-103.5,24.4C60.4,259.7,22.8,250.6,0,235.3z M0,179.4v38c17.7,17.3,57.7,28.3,103.5,28.3 c45.8,0,85.8-11,103.5-28.3v-38c-22.8,15.3-60.4,24.4-103.5,24.4C60.4,203.9,22.8,194.7,0,179.4z M0,291.2v38 c17.7,17.3,57.7,28.3,103.5,28.3c45.8,0,85.8-11,103.5-28.3v-38c-22.8,15.3-60.4,24.4-103.5,24.4C60.4,315.6,22.8,306.5,0,291.2z M0,347v25.5c0,23.3,46.3,42.2,103.5,42.2c57.2,0,103.5-18.9,103.5-42.2V347c-22.8,15.3-60.4,24.4-103.5,24.4 C60.4,371.5,22.8,362.4,0,347z M103.5,189.9c57.1,0,103.5-16.5,103.5-36.9S160.6,116,103.5,116S0,132.6,0,152.9 S46.3,189.9,103.5,189.9z" fill="url(#a)"/></svg>