<?xml version="1.0" encoding="UTF-8" standalone="no"?><svg xmlns="http://www.w3.org/2000/svg" xmlns:xlink="http://www.w3.org/1999/xlink" fill="#555588" height="31.5" preserveAspectRatio="xMidYMid meet" version="1" viewBox="0.8 0.4 30.5 31.5" width="30.5" zoomAndPan="magnify">
 <g id="change1_1"><path d="m0.774 22.15c0-0.48 0.067-0.885 0.2-1.213a2.17 2.17 0 0 1 0.583 -0.813 2.31 2.31 0 0 1 0.86 -0.445c0.328-0.092 0.68-0.138 1.06-0.138a3.62 3.62 0 0 1 1.013 0.138c0.327 0.092 0.614 0.24 0.86 0.445s0.44 0.476 0.583 0.813c0.143 0.328 0.215 0.732 0.215 1.213 0 0.46-0.072 0.854-0.215 1.182a2.27 2.27 0 0 1 -0.583 0.813c-0.245 0.215-0.532 0.368-0.86 0.46a3.29 3.29 0 0 1 -1.013 0.153c-0.38 0-0.732-0.05-1.06-0.153a2.19 2.19 0 0 1 -0.86 -0.46c-0.246-0.215-0.44-0.486-0.583-0.813-0.133-0.327-0.2-0.72-0.2-1.182m8.656 9.746c-0.5 0-0.998-0.036-1.52-0.107s-0.957-0.164-1.304-0.276v-3.683c0.317 0.102 0.614 0.174 0.9 0.215a5.27 5.27 0 0 0 0.936 0.077c0.256 0 0.496-0.04 0.72-0.123a1.16 1.16 0 0 0 0.6 -0.414c0.174-0.194 0.312-0.46 0.414-0.798 0.102-0.327 0.153-0.752 0.153-1.274v-18.325h4.68v19.015c0 0.788-0.102 1.524-0.307 2.2a4.43 4.43 0 0 1 -0.967 1.8c-0.44 0.522-1.013 0.93-1.72 1.228s-1.565 0.445-2.578 0.445m0.7-29.144c0-0.44 0.067-0.803 0.2-1.1s0.312-0.532 0.537-0.706c0.235-0.184 0.506-0.312 0.813-0.384 0.317-0.072 0.65-0.107 0.998-0.107a4.29 4.29 0 0 1 0.982 0.107 1.94 1.94 0 0 1 0.798 0.384 1.74 1.74 0 0 1 0.552 0.706c0.143 0.287 0.215 0.65 0.215 1.1 0 0.43-0.072 0.793-0.215 1.1-0.133 0.297-0.317 0.537-0.552 0.72a2.22 2.22 0 0 1 -0.798 0.384 4.29 4.29 0 0 1 -0.982 0.108c-0.348 0-0.68-0.035-0.998-0.108a2.39 2.39 0 0 1 -0.813 -0.384c-0.225-0.184-0.404-0.425-0.537-0.72s-0.2-0.66-0.2-1.1m21.12 16.518c0 0.9-0.164 1.688-0.5 2.363a4.54 4.54 0 0 1 -1.397 1.688c-0.604 0.45-1.335 0.788-2.195 1.013s-1.82 0.338-2.885 0.338c-0.563 0-1.085-0.02-1.565-0.06a11.14 11.14 0 0 1 -1.366 -0.169c-0.43-0.082-0.844-0.184-1.243-0.307a10.48 10.48 0 0 1 -1.212 -0.46v-3.866c0.43 0.215 0.88 0.4 1.35 0.583l1.427 0.46 1.366 0.292a7.91 7.91 0 0 0 1.243 0.107c0.42 0 0.778-0.035 1.074-0.107 0.297-0.082 0.537-0.2 0.72-0.322 0.194-0.143 0.333-0.307 0.414-0.5a1.42 1.42 0 0 0 0.138 -0.614c0-0.215-0.036-0.404-0.107-0.568-0.06-0.174-0.2-0.353-0.445-0.537-0.235-0.194-0.583-0.4-1.044-0.644l-1.826-0.9-1.95-0.998c-0.542-0.338-0.992-0.7-1.35-1.12a4.17 4.17 0 0 1 -0.783 -1.397c-0.174-0.532-0.26-1.16-0.26-1.888 0-0.798 0.153-1.494 0.46-2.087a4.1 4.1 0 0 1 1.304 -1.504c0.563-0.4 1.238-0.696 2.026-0.9 0.798-0.205 1.683-0.307 2.655-0.307 1.023 0 1.995 0.118 2.916 0.353s1.867 0.588 2.84 1.06l-1.412 3.315c-0.778-0.368-1.52-0.67-2.225-0.905a6.67 6.67 0 0 0 -2.118 -0.353c-0.634 0-1.095 0.113-1.38 0.338-0.276 0.225-0.414 0.532-0.414 0.92 0 0.205 0.036 0.4 0.107 0.553 0.072 0.154 0.215 0.317 0.43 0.5 0.215 0.164 0.517 0.348 0.905 0.552l1.52 0.72 1.964 0.95a6.68 6.68 0 0 1 1.504 1.059 4.13 4.13 0 0 1 0.967 1.397c0.225 0.532 0.338 1.177 0.338 1.934" fill="inherit"/></g>
</svg>