<?xml version="1.0" encoding="UTF-8"?><svg xmlns="http://www.w3.org/2000/svg" xmlns:xlink="http://www.w3.org/1999/xlink" height="9.1" preserveAspectRatio="xMidYMid meet" version="1.0" viewBox="0.0 0.0 17.0 9.1" width="17.0" zoomAndPan="magnify"><defs><linearGradient gradientUnits="userSpaceOnUse" id="a" x2="17" xlink:actuate="onLoad" xlink:show="other" xlink:type="simple" xmlns:xlink="http://www.w3.org/1999/xlink" y1="4.56" y2="4.56"><stop offset="0" stop-color="#12c2e9"/><stop offset=".49" stop-color="#a280ec"/><stop offset="1" stop-color="#f0536a"/></linearGradient></defs><g><path d="M16.5,0H4.5A.5.5,0,0,0,4,.5V8.63a.5.5,0,0,0,.5.5h12a.5.5,0,0,0,.5-.5V.5A.5.5,0,0,0,16.5,0ZM16,1v.25L10.5,4,5,1.25V1ZM5,8.13V2.37L10.28,5a.51.51,0,0,0,.44,0L16,2.37V8.13ZM0,1.56a.5.5,0,0,1,.5-.5h2a.5.5,0,0,1,.5.5.5.5,0,0,1-.5.5H.5A.5.5,0,0,1,0,1.56Zm1,2a.5.5,0,0,1,.5-.5h1a.5.5,0,0,1,.5.5.5.5,0,0,1-.5.5h-1A.5.5,0,0,1,1,3.56Zm14,3a.5.5,0,0,1-.5.5h-1a.5.5,0,0,1-.5-.5.5.5,0,0,1,.5-.5h1A.5.5,0,0,1,15,6.56Z" fill="url(#a)"/></g></svg>