<?xml version="1.0" encoding="UTF-8"?><svg xmlns="http://www.w3.org/2000/svg" xmlns:xlink="http://www.w3.org/1999/xlink" height="384.0" preserveAspectRatio="xMidYMid meet" version="1.0" viewBox="32.0 64.0 448.0 384.0" width="448.0" zoomAndPan="magnify"><linearGradient gradientUnits="userSpaceOnUse" id="a" x1="55.319" x2="456.68" xlink:actuate="onLoad" xlink:show="other" xlink:type="simple" xmlns:xlink="http://www.w3.org/1999/xlink" y1="467.214" y2="65.853"><stop offset="0" stop-color="#5ebce5"/><stop offset=".508" stop-color="#b678e6"/><stop offset="1" stop-color="#e25b61"/></linearGradient><path d="M448,288h-16v-16h16V288z M448,336h-16v16h16V336z M448,208h-16v16h16V208z M448,400h-16v16h16V400z M256,304c-9.066-9.066-14.059-21.12-14.059-33.941c0-12.822,4.992-24.875,14.059-33.941s21.12-14.059,33.941-14.059 c2.446,0,4.863,0.185,7.238,0.542c-0.84,17.266,2.752,34.403,10.531,49.965l3.358,6.725c1.361,2.725,4.141,4.426,7.155,4.426 c0.188,0,0.377-0.006,0.567-0.02c3.228-0.229,6-2.379,7.023-5.45l1.195-3.583c2.271-6.805,5.118-13.384,8.481-19.686 c5.491,16.676,1.63,35.784-11.609,49.023c-9.065,9.066-21.119,14.059-33.94,14.059S265.066,313.066,256,304z M298.927,287.029 c0,4.418,3.587,8,8.005,8c4.419,0,8-3.582,8-8s-3.581-8-8-8h-0.01C302.504,279.029,298.927,282.611,298.927,287.029z M264.985,253.088c0,4.418,3.587,8,8.005,8c4.419,0,8-3.582,8-8s-3.581-8-8-8h-0.01C268.562,245.088,264.985,248.67,264.985,253.088 z M253.657,275.716c0,16.888,13.739,30.627,30.627,30.627c4.418,0,8-3.582,8-8s-3.582-8-8-8c-8.065,0-14.627-6.562-14.627-14.627 c0-4.418-3.582-8-8-8S253.657,271.297,253.657,275.716z M384,208h-16v16h16V208z M368,416h16v-16h-16V416z M326.357,238.809 c-0.789-0.918-1.605-1.821-2.475-2.691c-3.253-3.253-6.895-5.971-10.814-8.133c0.052,9.185,1.586,18.274,4.564,26.959 C320.192,249.384,323.107,243.996,326.357,238.809z M58,128h12c1.103,0,2-0.897,2-2V66c0-1.103-0.897-2-2-2H58c-1.103,0-2,0.897-2,2 v60C56,127.103,56.897,128,58,128z M378,128h12c1.103,0,2-0.897,2-2V66c0-1.103-0.897-2-2-2h-12c-1.103,0-2,0.897-2,2v60 C376,127.103,376.897,128,378,128z M442,128h12c1.103,0,2-0.897,2-2V66c0-1.103-0.897-2-2-2h-12c-1.103,0-2,0.897-2,2v60 C440,127.103,440.897,128,442,128z M314,128h12c1.103,0,2-0.897,2-2V66c0-1.103-0.897-2-2-2h-12c-1.103,0-2,0.897-2,2v60 C312,127.103,312.897,128,314,128z M186,128h12c1.103,0,2-0.897,2-2V66c0-1.103-0.897-2-2-2h-12c-1.103,0-2,0.897-2,2v60 C184,127.103,184.897,128,186,128z M122,128h12c1.103,0,2-0.897,2-2V66c0-1.103-0.897-2-2-2h-12c-1.103,0-2,0.897-2,2v60 C120,127.103,120.897,128,122,128z M250,128h12c1.103,0,2-0.897,2-2V66c0-1.103-0.897-2-2-2h-12c-1.103,0-2,0.897-2,2v60 C248,127.103,248.897,128,250,128z M275.159,352.723l18.796-18.796c-1.331,0.082-2.668,0.132-4.014,0.132 c-17.095,0-33.167-6.657-45.256-18.746c-13.506-13.506-19.695-31.594-18.577-49.305l-6.851,6.851 C230.538,304.08,249.727,331.492,275.159,352.723z M32,176h448v265c0,3.86-3.141,7-7,7H39c-3.859,0-7-3.14-7-7V176z M400,392 c0-4.418-3.582-8-8-8h-32c-4.418,0-8,3.582-8,8v32c0,4.418,3.582,8,8,8h32c4.418,0,8-3.582,8-8V392z M416,232c0,4.418,3.582,8,8,8 h32c4.418,0,8-3.582,8-8v-32c0-4.418-3.582-8-8-8h-32c-4.418,0-8,3.582-8,8V232z M416,296c0,4.418,3.582,8,8,8h32 c4.418,0,8-3.582,8-8v-32c0-4.418-3.582-8-8-8h-32c-4.418,0-8,3.582-8,8V296z M416,360c0,4.418,3.582,8,8,8h32c4.418,0,8-3.582,8-8 v-32c0-4.418-3.582-8-8-8h-32c-4.418,0-8,3.582-8,8V360z M416,424c0,4.418,3.582,8,8,8h32c4.418,0,8-3.582,8-8v-32 c0-4.418-3.582-8-8-8h-32c-4.418,0-8,3.582-8,8V424z M352,232c0,4.418,3.582,8,8,8h32c4.418,0,8-3.582,8-8v-32c0-4.418-3.582-8-8-8 h-32c-4.418,0-8,3.582-8,8V232z M176.804,292.687c-24.953,24.954-24.953,65.556,0,90.509c12.088,12.088,28.16,18.746,45.255,18.746 s33.167-6.657,45.256-18.746l67.882-67.882c24.953-24.954,24.953-65.556,0-90.509c-12.088-12.088-28.16-18.746-45.255-18.746 s-33.167,6.657-45.256,18.746L176.804,292.687z M112,232c0,4.418,3.582,8,8,8h32c4.418,0,8-3.582,8-8v-32c0-4.418-3.582-8-8-8h-32 c-4.418,0-8,3.582-8,8V232z M112,424c0,4.418,3.582,8,8,8h32c4.418,0,8-3.582,8-8v-32c0-4.418-3.582-8-8-8h-32c-4.418,0-8,3.582-8,8 V424z M48,232c0,4.418,3.582,8,8,8h32c4.418,0,8-3.582,8-8v-32c0-4.418-3.582-8-8-8H56c-4.418,0-8,3.582-8,8V232z M48,296 c0,4.418,3.582,8,8,8h32c4.418,0,8-3.582,8-8v-32c0-4.418-3.582-8-8-8H56c-4.418,0-8,3.582-8,8V296z M48,360c0,4.418,3.582,8,8,8h32 c4.418,0,8-3.582,8-8v-32c0-4.418-3.582-8-8-8H56c-4.418,0-8,3.582-8,8V360z M48,424c0,4.418,3.582,8,8,8h32c4.418,0,8-3.582,8-8 v-32c0-4.418-3.582-8-8-8H56c-4.418,0-8,3.582-8,8V424z M144,208h-16v16h16V208z M256,371.882l7.809-7.809 c-25.175-21.318-44.623-48.253-56.941-78.824l-14.14,14.14c8.748,31.33,25.422,59.699,48.529,82.559 C246.687,379.577,251.685,376.198,256,371.882z M80,208H64v16h16V208z M80,336H64v16h16V336z M80,272H64v16h16V272z M144,400h-16v16 h16V400z M473,112h-1v14c0,9.925-8.075,18-18,18h-12c-9.925,0-18-8.075-18-18v-14h-16v14c0,9.925-8.075,18-18,18h-12 c-9.925,0-18-8.075-18-18v-14h-16v14c0,9.925-8.075,18-18,18h-12c-9.925,0-18-8.075-18-18v-14h-16v14c0,9.925-8.075,18-18,18h-12 c-9.925,0-18-8.075-18-18v-14h-16v14c0,9.925-8.075,18-18,18h-12c-9.925,0-18-8.075-18-18v-14h-16v14c0,9.925-8.075,18-18,18h-12 c-9.925,0-18-8.075-18-18v-14H88v14c0,9.925-8.075,18-18,18H58c-9.925,0-18-8.075-18-18v-14h-1c-3.859,0-7,3.14-7,7v41h448v-41 C480,115.14,476.859,112,473,112z M188.118,371.882c9.065,9.066,21.119,14.059,33.94,14.059c0.272,0,0.541-0.015,0.812-0.02 c-18.99-20.789-33.405-45.242-42.401-71.936C169.908,332.331,172.452,356.217,188.118,371.882z M80,400H64v16h16V400z" fill="url(#a)"/></svg>